<?xml version="1.0" encoding="UTF-8"?>
<svg id="Layer_1" data-name="Layer 1" xmlns="http://www.w3.org/2000/svg" version="1.1" xmlns:xlink="http://www.w3.org/1999/xlink" viewBox="0 0 100 100">
  <defs>
    <style>
      .cls-1 {
        fill: url(#linear-gradient-12);
      }

      .cls-1, .cls-2, .cls-3, .cls-4, .cls-5, .cls-6, .cls-7, .cls-8, .cls-9, .cls-10, .cls-11, .cls-12, .cls-13 {
        stroke-width: 0px;
      }

      .cls-2 {
        fill: url(#linear-gradient);
      }

      .cls-3 {
        fill: url(#linear-gradient-6);
      }

      .cls-4 {
        fill: url(#linear-gradient-11);
      }

      .cls-5 {
        fill: url(#linear-gradient-5);
      }

      .cls-6 {
        fill: url(#linear-gradient-13);
      }

      .cls-7 {
        fill: url(#linear-gradient-2);
      }

      .cls-8 {
        fill: url(#linear-gradient-7);
      }

      .cls-9 {
        fill: url(#linear-gradient-3);
      }

      .cls-10 {
        fill: url(#linear-gradient-9);
      }

      .cls-11 {
        fill: url(#linear-gradient-8);
      }

      .cls-12 {
        fill: url(#linear-gradient-10);
      }

      .cls-13 {
        fill: url(#linear-gradient-4);
      }
    </style>
    <linearGradient id="linear-gradient" x1="0" y1="50.38" x2="99.99" y2="50.38" gradientUnits="userSpaceOnUse">
      <stop offset="0" stop-color="#fad66c"/>
      <stop offset="1" stop-color="#e5ab55"/>
    </linearGradient>
    <linearGradient id="linear-gradient-2" x1="81.12" y1="38.95" x2="89.69" y2="38.95" xlink:href="#linear-gradient"/>
    <linearGradient id="linear-gradient-3" x1="71.51" y1="32.44" x2="73.15" y2="32.44" xlink:href="#linear-gradient"/>
    <linearGradient id="linear-gradient-4" x1="86.89" y1="42.05" x2="89.89" y2="42.05" xlink:href="#linear-gradient"/>
    <linearGradient id="linear-gradient-5" x1="68.28" y1="31.45" x2="68.98" y2="31.45" xlink:href="#linear-gradient"/>
    <linearGradient id="linear-gradient-6" x1="22.23" y1="18.05" x2="24.95" y2="18.05" xlink:href="#linear-gradient"/>
    <linearGradient id="linear-gradient-7" x1="25.52" y1="50.44" x2="26.82" y2="50.44" xlink:href="#linear-gradient"/>
    <linearGradient id="linear-gradient-8" x1="61.24" y1="21.76" x2="63.14" y2="21.76" xlink:href="#linear-gradient"/>
    <linearGradient id="linear-gradient-9" x1="67.52" y1="10.79" x2="69.97" y2="10.79" xlink:href="#linear-gradient"/>
    <linearGradient id="linear-gradient-10" x1="55.45" y1="17.05" x2="56.88" y2="17.05" xlink:href="#linear-gradient"/>
    <linearGradient id="linear-gradient-11" x1="41.76" y1="35.46" x2="43.53" y2="35.46" xlink:href="#linear-gradient"/>
    <linearGradient id="linear-gradient-12" x1="63.59" y1="40.03" x2="65.62" y2="40.03" xlink:href="#linear-gradient"/>
    <linearGradient id="linear-gradient-13" x1="42.33" y1="39.04" x2="44.24" y2="39.04" xlink:href="#linear-gradient"/>
  </defs>
  <path class="cls-2" d="M49.9.75c11.98.21,22.88,3.89,32.23,11.53,8.79,7.19,14.39,16.31,16.69,27.25,2.31,10.97,1.27,21.65-3.49,31.91-4.77,10.3-12.45,17.93-22.75,23.09-5.91,2.96-12.2,4.73-18.83,5.31-4.06.36-8.11.13-12.13-.54-8.72-1.47-16.46-5.01-23.24-10.48-8.8-7.1-14.5-16.09-17.03-26.94C.25,57.18-.17,52.43.06,47.64c.41-8.39,2.82-16.2,7.31-23.38,5.15-8.23,12.12-14.58,21.07-18.79,5.14-2.42,10.58-3.88,16.27-4.44,1.66-.16,3.32-.22,5.19-.27ZM44.24,38.43h0c-.05-.5.55-.34.7-.68-.33-.12-.66-.15-1.03-.07-.51.11-1.01.35-1.55.15-.12-.04-.24.04-.35.11-.78.54-1.14.54-1.92,0-.24-.17-.45-.39-.91-.43,2.48,2.43,4.79,4.85,7.7,6.63.29.18.61.32.92.47.15.07.27.08.33-.12.15-.47.43-.95.37-1.43-.21-1.48-.57-2.93-1.45-4.2-.76-1.1-1.68-1.21-2.81-.42ZM46.46,5.41c-.34-.44-.38-.88-.03-1.35.25-.34.62-.49.99-.65.41-.17.76-.39.9-.89-3.02.08-5.96.48-8.88,1.07-.29.06-.18.2-.1.34.25.5.55.96.99,1.33.4.33.66.82.38,1.23-.4.57-.12,1,.1,1.45.31.64.67,1.26,1.01,1.89.04.08.07.21.22.17-.02-.19-.02-.39-.07-.58-.1-.39-.03-.88-.34-1.14-.6-.5-.56-1.08-.28-1.64.3-.6.33-1.14.05-1.72-.04-.09-.12-.18.04-.36.37.91.77,1.76,1.07,2.64.13.37.05.85-.35,1.04-.31.15-.23.25-.16.46.09.31.17.62.2.93.08.83.36,1.6.65,2.37.16-1.61.49-3.19.74-4.79.03-.18,0-.34-.19-.46-.35-.21-.42-.55-.43-.93,0-.58.22-1.14.11-1.87.63.64,1.08,1.2,1.26,1.93.07.3.03.6-.23.77-.25.17-.31.34-.28.61.02.23-.02.46-.04.69-.07.82-.29,1.62-.22,2.46.57-1.75.71-3.67,2.16-5.17-.11.45-.48.68-.52,1.13.47-.36.88-.68,1.3-1-.28.61-.79,1.02-1.32,1.38-.32.22-.55.47-.65.83-.27,1.04-.53,2.08-.79,3.12.53-.56.99-1.16,1.44-1.76.12-.15.26-.35.08-.53-.33-.33-.16-.65.05-.91.37-.46.81-.87,1.27-1.35.02.33-.09.57.1.85.06-.73.52-1.09,1.1-1.32.34-.13.7-.21,1.05-.3.31-.08.54-.21.77.26.26.54.76.99,1.33,1.31.27.15.56.35.62.65.17.85.87,1.22,1.49,1.68.39.29.78.29,1.25.13-.57-.75-1.24-1.37-1.66-2.17-.05-.09-.15-.08-.24-.09-.78-.09-1.12-.63-1.28-1.28-.24-.95.21-1.78.54-2.78.2.68.56,1.07.91,1.48.56.66.69,1.39.32,2.19-.07.15-.14.27-.04.44.43.81,1.17,1.39,1.72,2.23-.03-.45-.07-.76-.08-1.08,0-.21-.05-.37-.27-.47-.84-.4-.79-1.6-.1-2.06.68-.45.85-.97.53-1.68-.02-.05,0-.13,0-.27.51.85.54,1.75.73,2.6.12.55.08,1.11-.52,1.45-.22.13-.12.35-.1.54.06.66.25,1.29.4,1.92.25,1.08.17,2.19.06,3.29.58-1.14,1.08-2.31,1.53-3.51.03-.09.04-.17-.02-.25-.68-1.01-.31-2.25-.79-3.34-.37-.84.5-2.03,1.64-2.55-.45.55-.3,1.11-.24,1.68.07.66.04,1.3-.73,1.61-.14.05-.19.17-.19.3.02.71.12,1.39.56,2.08.3-.87.56-1.66.84-2.45.04-.13-.01-.19-.06-.29-.29-.6-.2-1.03.35-1.44.58-.43,1.26-.74,1.76-1.44.02.94-.11,1.7-.32,2.46-.14.5-.44.8-.97.88-.15.02-.32-.01-.37.22-.11.47-.26.93-.4,1.4.04.03.09.06.13.1.67-.68,1.34-1.36,2-2.04.1-.1.23-.23.24-.35.04-.69.53-.97,1.09-1.2.52-.21.92-.55,1.2-1.04.16-.28.12-.36-.21-.45-3.91-1-7.87-1.55-11.91-1.58-.58,0-1.28-.24-1.71.09-.43.33-.37,1.04-.51,1.59-.23.91-.69,1.24-1.64,1.19ZM65.57,39.01h-.01c.12-.51.53-.88.73-1.42-1.72.63-3.28,1.42-4.84,2.23-1.64.85-2.55,2.26-3.48,3.8.23-.1.39-.17.56-.23,1.75-.71,3.56-1.16,5.45-1.31,3-.23,5.96.1,8.87.75,1.73.39,3.16.03,4.5-.99.27-.2.51-.42.77-.75-.25-.02-.4-.04-.56-.06-.78-.08-1.57-.14-1.77-1.1-.01-.06-.08-.13-.14-.15-.56-.24-1.13-.46-1.69-.69.76.64.54,1.51.66,2.29-.33-.35-.71-.62-1.07-.92-.38-.32-.51-.68-.23-1.12.1-.16.16-.3,0-.47-.58-.58-1.3-.92-2.06-1.28-.02.5-.02.88.49,1.07.25.1.29.4.25.66-.07.54-.33.98-.73,1.4-.1-.23-.17-.41-.25-.58-.08-.18-.18-.35-.24-.53-.11-.34-.2-.68.14-.98.37-.33.22-1.03-.25-1.21-.78-.3-1.59-.37-2.43-.3-.28.02-.41.14-.47.42-.13.68-.59,1.23-.78,1.95-.35-.64-.42-1.25-.32-1.94-.48.5-.61,1.12-1.09,1.49ZM18.47,86.46c.09-.38.42-.56.69-.79.69-.58,1.54-.87,2.37-1.2.17-.07.36-.09.45-.27.49-.93,1.14-1.76,1.85-2.74-1.69.59-2.84,1.7-4.11,2.63,1.12-1.21,2.31-2.35,3.89-2.97,1.14-.44,1.72-1.39,2.43-2.23.19-.23.08-.34-.19-.37-.44-.05-.88-.01-1.31.08-2.91.63-4.89,2.32-6.06,5.03.09-.87.55-1.53.95-2.22-1.44.91-3.04,1.29-4.78,1.55,1.2,1.24,2.35,2.37,3.58,3.42.06.05.17.04.26.06-.02.22.18.29.31.4,2.21,1.9,4.63,3.52,7.17,4.99,8.17,4.71,16.99,6.82,26.47,6.35.13,0,.29.07.39-.12-1.47-1.38-2.45-3.03-2.94-4.96-.22,1.53-.07,3.08-.24,4.61-.11-1.98-.71-3.93-.37-5.95-.61,1.53-1.76,2.79-2.24,4.39-.06-.14-.06-.26-.05-.39.01-1.02.38-1.94.83-2.84.43-.87.66-1.77.45-2.74-.32-1.52-1.15-2.82-1.99-4.18-.29.89-.69,1.64-1.25,2.31-.62.75-1.3,1.45-2.06,2.06-.26.21-.25.3,0,.5.68.51,1.35,1.03,1.9,1.68,1.05,1.24,1.13,3.25.17,4.37,0-.02-.02-.03-.02-.05.03-.14.06-.28.09-.41.39-1.64-.07-2.98-1.48-3.99-.47-.34-.97-.64-1.44-.98-.22-.16-.36-.15-.54.06-.59.68-1.02,1.42-1.16,2.31-.08.48-.08.95-.05,1.44-.09-.05-.13-.11-.16-.17-.63-1.46-.4-2.82.58-4.05.2-.25.22-.37-.04-.59-.76-.65-1.43-1.38-1.93-2.24-.35-.6-.58-1.25-.78-1.9-.07.03-.11.03-.14.05-.06.06-.12.13-.18.2-.93,1.24-1.05,2.53-.31,3.9.32.6.73,1.15.96,1.79.41,1.13.31,2.18-.52,3.14.67-1.5.09-2.73-.85-3.89-.85-1.05-1.28-2.22-1.09-3.57,0-.05,0-.11-.09-.12-.36.33-.71.7-1.02,1.09-.92,1.18-.98,2.36-.19,3.61.38.59.86,1.11,1.31,1.64.35.42.68.86.83,1.4-.85-1.08-1.97-1.92-2.79-3.2-.04.94-.18,1.7-.76,2.32.47-.99.48-2.03.39-3.08-.05-.56-.09-1.11.09-1.66-1.31,1.6-3.15,2.07-5.07,2.38.41-.19.83-.35,1.25-.51,1.1-.44,2.16-.96,3.02-1.8.69-.68,1.08-1.45.95-2.44-.15-1.11-.22-2.22,0-3.43-.52.51-1,.91-1.55,1.22-1.08.61-2.26.99-3.48,1.26-.47.1-.71.33-.86.77-.48,1.44-.91,2.89-.53,4.43-.71-1.65-.2-3.24.28-4.94-.72.55-1.15,1.23-1.87,1.6.33-.39.65-.77.98-1.16-1.21.19-2.36.47-3.56,1.03.32-.32.6-.45.87-.58.95-.47,1.95-.81,2.96-1.11.57-.17.9-.49,1.12-.99.25-.57.52-1.13.79-1.7,1.03-2.18,2.73-3.65,5.05-4.46.15-.05.31-.07.36-.27.13-.55.29-1.08.44-1.65-.46.04-.85.18-1.24.34-1.12.45-1.94,1.25-2.61,2.21-1.35,1.94-3.24,3.14-5.56,3.73-.78.2-1.55.4-2.34.54-.91.16-1.67.42-1.59,1.57-.19-.39.05-.73.01-1.1-.15.04-.27.07-.39.1-1.03.29-1.93.83-2.78,1.44ZM78.62,15.64c-.31-.06-.28.33-.54.36-.59.08-.76.53-.91,1-.22.68-.26,1.38-.44,2.21.61-.81.9-1.64,1.38-2.37-.29,1.1-.95,2.03-1.49,3.01-.35.63-.72,1.25-1.09,1.88.67-.36,1.27-.83,1.96-1.06.97-.32,1.5-1.01,2-1.79.16-.26.33-.49.11-.82-.15-.22-.06-.49.1-.7.36-.44.81-.79,1.11-1.29.08.53.14,1.04.12,1.55-.02.51-.24.9-.85.91-.11,0-.22-.01-.27.12-.21.49-.58.89-.9,1.4.95-.22,1.91-.2,2.59-.97.28-.31.7-.51,1.11-.67.12-.05.24-.05.27-.26.07-.61.36-.83,1.02-.87.3-.02.6,0,.99,0-.19-.21-.3-.32-.41-.44-2.2-2.22-4.61-4.2-7.23-5.95-4.31-2.88-8.98-5.02-13.99-6.48-.47-.14-.62-.03-.71.42-.14.67-.28,1.36-.59,1.99-.36.71-1.1.98-1.64.46-.2-.19-.23,0-.32.09-.54.53-1.04,1.12-1.64,1.57-1.14.85-1.15,2.19-1.69,3.31.34-.13.62-.32.91-.48.16-.09.31-.16.28-.39-.04-.45.24-.74.63-.91.61-.27,1.26-.46,1.72-.99-.18.65-.21,1.32-.59,1.88-.41.61-.88.77-1.5.47-.18-.09-.26-.03-.38.06-.23.18-.44.39-.7.51-.77.35-.92,1.08-1.23,1.83.56-.22,1.02-.41,1.49-.58.83-.29,1.52-.76,2.07-1.43.42-.51.87-1.01,1.32-1.49.19-.21.31-.4.24-.7-.08-.39.09-.73.39-1,.56-.48,1.27-.8,1.62-1.5.04.56.05,1.07.04,1.59-.01.39-.09.78-.31,1.12-.35.54-.72.68-1.34.45-.17-.06-.25-.06-.36.08-.62.74-1.25,1.47-1.98,2.33.6-.18,1.1-.05,1.52-.31,1.27-.79,2.82-1.26,3.38-2.9.2.37-.16.61-.08.94.41-.3.71-.62.95-1.08-.39.09-.75.14-.96-.16-.25-.34-.36-.73-.18-1.16.22-.5.63-.82,1.1-1.07.56-.29.56-.3.68.29.32,1.48-.58,3.24-2.02,3.98-.62.32-1.22.66-1.83,1,.72,0,1.41-.09,2.09-.17.36-.04.69-.04.84-.5.11-.32.47-.49.82-.56.44-.08.89-.13,1.44-.22-.29.3-.57.5-.68.87.44-.19.83-.35,1.22-.52.01.03.03.05.04.08-.37.19-.73.39-1.1.58,1.54-.03,3.01.14,4.45.59.12.04.24.04.32-.12.32-.63.89-.68,1.5-.58.86.15,1.7.33,2.6.28-.67.44-1.21,1.04-1.98,1.29-.77.25-1.51.32-2.06-.45-.12-.16-.3-.17-.48-.21-2.18-.45-4.37-.3-6.56-.16-.49.03-1,0-1.54.24,1.3.35,2.52.67,3.75,1,.02-.78.5-1.11,1.23-.88.71.22,1.35.62,2.17.82-.66.19-1.27.27-1.78.67.83.24,1.64.47,2.44.7-2.19-.29-4.33-.82-6.51-1.42.12.17.2.28.27.39-.58-.39-1.1-.76-1.82-.84-1.71-.18-3.29.26-4.86.84-.56.21-1.01.56-1.34,1.06-1.27,1.98-2.44,4-3.25,6.2-.33.91-.55,1.86-.68,2.86.25-.1.31-.3.42-.45.54-.74,1.08-1.48,1.76-2.11.25-.23.33-.47.35-.79.07-1.01.23-2,.75-2.9l.02.02c-.2.91-.6,1.8-.43,2.77,1.12-2.78,3.15-4.84,5.4-6.73-.63.67-1.28,1.32-1.86,2.1.26-.05.38-.19.52-.3,1-.77,2.08-1.32,3.42-1.14.13.02.24.02.37-.05.68-.39,1.07-.32,1.5.29.25.36.44.75.73,1.25-.54-.26-.99-.31-1.44-.35-.42-.04-.79-.2-.87-.67-.04-.2-.15-.28-.34-.27-.95.06-1.98-.04-2.4,1.12-.06.17-.23.32-.37.45-.14.14-.36.22-.5.11-.52-.41-.86.02-1.12.27-.57.54-.95,1.24-1.43,1.96.67-.16,1.2-.44,1.74-.68.32-.14.57-.3.71-.67.15-.4.49-.78.93-.84.66-.09,1.34-.05,2.02-.04.16,0,.29.06.45-.06.34-.26.7-.16,1.02.05.44.3.77.69,1.12,1.26-.57-.28-1.04-.2-1.51-.15-.47.05-.76-.13-.84-.56-.09-.5-.35-.37-.6-.16-.31.27-.57.6-.88.88-.44.4-.94.64-1.53.3-.22-.12-.38-.05-.56.05-.61.33-1.22.63-1.88.86-.5.17-.7.56-.85,1.05q1.17-.54,2.63-.55c.13,0,.29.08.38-.11.28-.63.79-.54,1.29-.35.56.21,1.12.44,1.75.5-.49.26-.98.5-1.49.68-.42.15-.91.24-1.23-.13-.29-.33-.59-.33-.96-.25-1.62.35-2.99,1.06-3.9,2.57,1.13-.4,2.18-.77,3.34-1.19-.13.14-.17.21-.22.23-.54.24-.35.5-.03.78.32.29.64.59.85.97.32.57.25,1.04-.23,1.48-.11.1-.23.19-.17.35.21.57.22,1.17.19,1.88,1.04-1.19,1.94-2.33,2.55-3.67.09-.2.12-.61.44-.48.21.08-.03.41-.09.61-.25.93-.76,1.74-1.36,2.65.67-.24,1.19-.49,1.77-.57.18-.03.21-.15.22-.31.05-.53.43-.75.91-.85.81-.16,1.49.25,2.31.49-.66.29-1.09.71-1.62.99-.48.25-.98.46-1.44-.06-.09-.11-.21-.13-.35-.1-1.49.34-2.65,1.11-3.46,2.45.56-.13,1.07-.25,1.58-.37.04,0,.07-.02.11-.03.09-.03.14-.08.19-.17.39-.7.8-.9,1.54-.69.55.15,1.07.36,1.65.56-.53.4-1.04.74-1.63.93-.54.17-1.12.33-1.52-.28-.07-.11-.18-.12-.29-.09-.75.17-1.57.27-2.13.77-1.05.95-1.87,2.11-2.81,3.21,1.16.21,2.02-.11,2.67-.98.08-.1.16-.19.13-.33-.12-.54.2-.79.65-.96.4-.15.8-.3,1.23-.56-.14.56-.25,1.04-.48,1.48-.16.31-.42.49-.79.46-.65-.05-1.05.2-1.28.83.55.12,1.02-.03,1.5-.32.55-.34,1.02-.81,1.66-1.02.11-.04.12-.1.14-.19.1-.6.55-.87,1.1-.96.8-.13,1.62-.2,2.31-.67-.4,1.61-1.85,2.37-2.83,3.49-.14.16-.36.15-.57.15-.13,0-.3-.01-.32.13-.03.18.17.22.3.25.54.11,1.01-.06,1.44-.37.2-.15.41-.3.71-.52-.53,1.17-1.55,1.65-2.56,1.19-1.65-.76-3.35-.59-5.06-.35-.41.06-.79.24-1.02.7.69.05,1.32.09,1.95.13.16,0,.33.03.47-.09.41-.33.88-.25,1.3-.08.53.21,1.05.41,1.74.34-.62.46-1.12.88-1.81.97-.49.06-1.1.05-1.26-.41-.2-.58-.58-.52-.99-.55-.27-.02-.55-.02-.82-.07-.61-.12-1,.11-1.23.66-.05.11-.19.21-.08.33.1.11.26.16.4.08.29-.18.57-.11.83.04.6.35.84.96,1.14,1.53-.38-.17-.75-.23-1.12-.3-.48-.1-.94-.26-.96-.85,0-.23-.18-.23-.33-.28-.21-.06-.29.07-.38.22-.62,1.09-1.33,2.17-1.53,3.4-.26,1.57-.4,3.17.59,4.61.21.31.4.64.55.98.16.35.3.34.58.11,1.77-1.4,3.25-3.07,4.64-4.81,1.98-2.48,3.68-5.18,5.75-7.6.84-.98,1.32-2.11,1.72-3.29.05-.16.15-.33.02-.51-.35-.5-.19-.98.1-1.44.2-.31.4-.62.56-1.1.21.64.41,1.15.53,1.68.13.54-.12.92-.7,1.11-.16.05-.19.14-.22.26-.11.39-.21.78-.35,1.28.67-.69,1.35-1.25,1.83-1.95.48-.7.73-1.54,1.11-2.31.17-.35.09-.59-.2-.82-.61-.49-1.16-1.04-1.48-1.75-.18-.4-.31-.81-.85-.93-.21-.04-.32-.28-.4-.48-.22-.55-.08-1.06.23-1.52.22-.32.37-.93.73-.89.4.04.66.57.86.97.43.84.33,1.3-.44,2-.1.09-.13.15-.08.27.34.71.8,1.33,1.49,1.81q.04-.44-.11-.63c-.43-.54-.43-.91.04-1.41.25-.27.55-.51.87-.81-.1.47-.07.88,0,1.3.07.42.09.86-.48,1.04-.26.08-.1.3-.08.46.03.19.14.38.31.41.2.03.21-.21.26-.35.64-1.64.72-3.32.33-5.02-.08-.34-.18-.58-.64-.52-.34.04-.62-.19-.79-.49-.21-.36-.29-.77-.31-1.18-.04-.68.04-1.39-.44-1.99.83.41,1.5.98,2.02,1.69.36.49.61,1.02.32,1.64-.04.09-.02.16.02.25.21.47.3.97.43,1.51.34-.37.42-.81.58-1.22.04-.12.04-.22-.05-.34-.44-.65-.41-1.12.11-1.67.48-.51,1.1-.86,1.69-1.27-.38.74-.28,1.54-.42,2.3-.07.38-.22.8-.67.79-.48,0-.56.24-.64.58-.05.19-.1.39-.21.54-.51.7-.31,1.48-.33,2.29.27-.14.47-.25.67-.37.12-.07.34-.06.28-.32-.11-.48.21-.73.57-.92.35-.18.72-.32,1.11-.49-.15.46-.15.93-.39,1.34-.2.34-.45.62-.92.5-.53-.13-1.36.4-1.42.94-.13,1.05-.42,2.05-.85,3.02-.17.38-.41.74-.5,1.25,1.7-1.26,3.28-2.52,5.1-3.45.12-.06.18-.17.23-.29.27-.76.43-1.54.48-2.34.01-.22-.06-.36-.29-.45-.58-.22-.76-.71-.74-1.25.04-.84.44-1.55.96-2.39.01.9.34,1.51.75,2.11.41.61.29,1.04-.29,1.51-.09.07-.17.13-.17.25.03.79-.19,1.54-.38,2.31.07-.01.11,0,.13-.03,1.25-1.04,1.71-2.43,1.84-3.97.01-.14-.04-.21-.16-.3-.61-.47-.76-1.16-.38-1.84.29-.53.74-.95,1.28-1.5-.23.66,0,1.12.12,1.6.15.66.34,1.34-.46,1.79-.08.04-.12.17-.14.27-.1.55-.19,1.09-.31,1.79.51-.7.87-1.28,1.04-2,.22-.92.15-1.93.73-2.76.14-.2-.06-.23-.16-.31-.52-.46-.55-1.01-.08-1.54.39-.43.92-.66,1.42-1.01.23.77.47,1.48.13,2.22ZM21.9,22.98c-.1.55.08,1.04.29,1.54.2.47.33.97-.26,1.3-.19.11-.09.25-.05.37.38,1.28,1.01,2.35,2.36,2.89.61.24,1.22.48,1.85.66,2.31.63,4.59,1.32,6.69,2.46.11.06.21.19.4.12-.39-.75-.75-1.48-1.14-2.2-.23-.41-.97-.7-1.26-.47-.54.45-.98.24-1.41-.12-.37-.3-.74-.58-1.26-.62.62-.23,1.23-.42,1.88-.38.34.02.69.1.81.44.18.51.6.43,1.03.51-.52-1.06-1.01-2.05-1.58-3-.12-.21-.22-.28-.46-.16-.53.27-1.05.57-1.64.74-.1.03-.15.1-.19.22-.19.69-.73,1.02-1.48.89-.7-.12-1.33-.5-2.07-.45.54-.32,1.07-.61,1.61-.86.43-.2.91-.42,1.36-.18.8.42,1.28-.19,1.88-.44-.71-.1-1.42-.14-2.12-.18-.13,0-.24.01-.36.09-.61.42-1.22.3-1.79-.05-.62-.39-1-1.04-1.69-1.38.85.15,1.67.04,2.49.07.68.02,1.02.26,1.23.9.06.17.15.16.27.17.24.02.47.05.71.05.62,0,1.25,0,1.89,0-.46-.91-.74-1.01-1.6-.57-.34.17-.61.05-.85-.15-.45-.39-.95-.68-1.69-.78.89-.3,1.65-.49,2.52-.48-.63-.55-1.19-1.07-1.77-1.54-.39-.32-1.43-.2-1.79.17-.33.33-.74.45-1.2.36-.55-.11-1.09-.11-1.62.06.46-.55.98-1.04,1.68-1.3.35-.13.75-.18.98.08.42.44.87.23,1.34.26-.03-.08-.04-.13-.06-.14-1.47-1.04-3.09-1.81-4.74-2.53-.37-.16-1.46.19-1.5.47-.08.58-.51.74-1,.82-.55.09-1.11.12-1.63.39.32-.49.64-.96,1.02-1.38.37-.41.84-.58,1.36-.24.13.08.22.06.35,0,.28-.12.57-.22.9-.35-.26-.13-.46-.26-.68-.34-.59-.22-1.15-.65-1.82-.13-.21.16-.58.1-.85-.02-.43-.2-.84-.42-1.28-.64,1.17-.73,2.25-.27,3.33.17-.35-.44-.65-.84-.81-1.33,1.36,1.97,3.71,2.32,5.67,3.29-.48-.46-1-.87-1.5-1.29-.25-.21-.46-.34-.81-.15-.26.14-.53.02-.76-.15-.3-.24-.55-.52-.76-.84-.41-.63-.78-1.29-1.48-1.71.95.33,1.93.56,2.8,1.02.45.24.74.64.69,1.18-.01.15.01.22.15.28.73.38,1.34.92,1.97,1.43,1.33,1.07,2.65,2.17,4.09,3.35-.59-.94-1.16-1.7-1.75-2.46-.8-1.02-1.61-2.02-2.13-3.21-.17-.38-.31-.78-.96-.42.13-.24.21-.37.28-.5.13-.27-.03-.47-.24-.58-.3-.16-.6-.52-.97-.3-.62.37-.86.42-1.4-.04-.41-.36-.81-.67-1.56-.5,1.61-.96,2.82-.2,4.11.58-.09-.41.04-.73-.32-.91-.71-.37-.95-.86-.85-1.67.08-.59.41-1.16.1-1.77-.01-.02.01-.07.02-.1.32.07.22-.22.25-.34.04-.18.2-.35.1-.58-.08.05-.16.09-.23.14-8.37,5.75-14.44,13.25-18.07,22.56-2.93,7.5-3.72,15.26-2.76,23.21.81,6.74,2.9,13.05,6.5,18.88,1.6,2.59,3.42,5.04,5.49,7.3.2.22.38.4.74.31,1.71-.43,3.35-1.02,4.77-2.07.16-.12.31-.25.46-.37-.85.19-1.68.27-2.52.35-.85.08-1.66.32-2.42.7.74-.66,1.65-.92,2.6-1.03,1.1-.13,2.16-.37,3.13-.91.86-.49,1.71-.99,2.83-1.32-1.56-.28-2.89-.76-4.27-1.07-.64-.14-1.23,0-1.76.4-.69.5-1.32,1.06-1.92,1.66-.31.31-.64.62-.96.92.55-.79,1.16-1.52,1.94-2.27-1.33.28-2.52.67-3.77.44.85-.03,1.67-.21,2.48-.44.82-.24,1.64-.5,2.4-.9.58-.31,1.19-.39,1.86-.25.73.16,1.44.39,2.15.6,2.13.63,4.44.49,6.46-.44,1.05-.48,2.19-.53,3.31-.68,1.88-.25,3.68-.7,5.21-1.91,1.26-1,2.53-2,3.88-2.87,2.01-1.3,3.14-3.09,3.7-5.33,1.09-4.31,1.42-8.69,1.42-13.1,0-4.11-2.33-7.24-6.34-8.58-2.2-.74-4.37-.32-6.55.08-.19.04-.3.18-.43.32-1.05,1.16-1.74,2.51-1.96,4.04-.32,2.14-.18,2.31,1.96,3.04.05.02.11.02.16.04.11.04.2.01.31-.03.62-.27,1.04-.16,1.44.4.62.88.49,1.86.36,2.85-.28-.6-.74-1.02-1.29-1.37-.47-.3-.75-.72-.74-1.29,0-.18-.01-.33-.26-.39-.56-.14-1.1-.31-1.72-.49.27.87.64,1.68.6,2.56,0,.17.14.17.26.21.75.29.97.66.83,1.45-.13.76-.53,1.42-.81,2.21-.24-.71-.79-1.11-1.13-1.65-.5-.78-.38-1.44.39-1.97.1-.07.22-.12.19-.28-.14-.71-.31-1.4-.73-2.08-.17.25-.33.45-.45.66-.3.52-.8,1-.39,1.69.05.08,0,.25-.05.36-.24.54-.5,1.08-.77,1.65-.3-.38-.49-.76-.61-1.17-.18-.59.03-1.25.5-1.3.56-.06.61-.42.79-.76.18-.37.38-.73.6-1.08.18-.29.22-.58.11-.91-.2-.58-.22-1.18-.24-1.79,0-.16.14-.4-.08-.47-.2-.06-.35.15-.5.27-.16.12-.16.22-.03.38.23.29.16.61-.05.89-.51.67-1.23,1.01-2.09,1.29q.3-.5.3-1.44c0-.76.39-1.16,1.14-1.19.11,0,.26.02.31-.04.48-.54,1.27-.79,1.38-1.7.11-.88.65-1.66,1.11-2.56-2.05.83-3.82,1.86-5.38,3.22-.18.15-.24.37-.47.52-.57.36-.96.92-1.36,1.45-.25.34.51,2.47.92,2.6.6.2.85.64.95,1.19.18,1.01-.29,1.89-.66,2.79-.12-.83-.63-1.47-.99-2.19-.29-.58-.37-1.16.19-1.65.07-.06.14-.12.1-.22-.3-.65-.6-1.29-.94-2.01-.55,1.26-.77,2.51-1.13,3.71-.06.2.09.27.22.37.42.31.53.71.32,1.18-.17.37-.47.63-.81.84-.74.47-.83.43-1.08-.42-.26-.88-.04-1.37.81-1.79.1-.05.18-.11.2-.23.18-.95.37-1.9.56-2.91-.48.21-.89.41-1.31.57-.18.07-.24.15-.24.35-.02.87-.26,1.18-1.11,1.49-.52.19-1.08.25-1.61.53.08-.37.14-.68.2-.99.09-.46.26-.88.59-1.24.53-.57.95-.67,1.69-.36.09.04.18.07.25.03.81-.45,1.86-.64,2.03-1.78q-1.09.06-1.34.29c-.56.51-1.4.59-2,.13-.4-.31-.79-.61-1.42-.79.74-.24,1.35-.48,2-.48.56,0,1.16-.03,1.48.57.08.15.23.06.35.07,1.55.11,2.02-1.23,2.92-2-.37,0-.76-.42-1.06-.02-.38.5-.83.52-1.35.32-.53-.2-1-.51-1.69-.62.42-.18.72-.33,1.02-.44.73-.27,1.4-.37,2.09.22.36.31.95.45,1.44.17.42-.24.77-.58,1.19-.9-.36-.15-.64-.46-1.02-.15-.42.34-.8.24-1.18-.06-.45-.35-.77-.85-1.45-1.07.75-.21,1.4-.22,2.04-.13.29.04.55.18.72.45.43.71,1.08.84,1.78.37.16-.11.33-.22.5-.32.31-.18.15-.27-.06-.39-.2-.11-.3.01-.43.1-.35.21-.69.17-.9-.18-.34-.57-.7-1.13-1.31-1.62.75-.04,1.37-.09,1.95.19.43.2.74.48.62,1-.05.2.03.27.22.34.34.14.63.13.97-.07,1.14-.64,2.34-1.16,3.64-1.44.21-.05.47.03.68-.22-.53-.11-1-.23-1.49-.31-2.04-.35-4.1-.68-6.16-.31-3.19.57-6.19,1.66-8.96,3.31-.15.09-.33.16-.41.34-.46,1-.91,2.01-1.22,3.08-.05.16-.04.3.12.42.52.4.46.89.19,1.39-.29.53-.54,1.08-.71,1.71-.21-.58-.46-1.1-.57-1.64-.12-.61-.21-1.27.6-1.57.09-.04.13-.11.15-.2.19-1.05.64-2.01,1.08-3.1-.76.43-1.34.92-1.94,1.37-.11.08-.15.2-.14.33.02.46-.26.73-.64.91-.67.3-1.36.57-2.04.86.43-.55.72-1.15,1.02-1.75.22-.45.59-.79,1.13-.6.34.12.5-.01.71-.19.75-.66,1.53-1.27,2.43-1.72.08-.04.11-.08.06-.19-.48.02-.97.06-1.46.07-.24,0-.39.07-.52.29-.27.48-.72.66-1.25.57-.68-.11-1.35-.39-2.07-.1.65-.45,1.18-1.01,1.87-1.34.63-.3.99-.24,1.45.24.13.13.24.13.39.1.51-.1,1.02-.1,1.53-.09.91,0,1.62-.43,2.48-.94-.41,0-.68-.14-.9.1-.45.51-.82.6-1.39.24-.53-.34-1.01-.74-1.51-1.11.01-.04.02-.09.04-.13.62.21,1.24.25,1.87.12.43-.09.77-.04.95.38.06.14.16.18.3.17.64-.02,1.27.02,1.89-.24.6-.26,1.23-.45,1.85-.66.15-.05.32-.08.43-.21.63-.71,1.51-.96,2.39-1.23.67-.21,1.38-.21,2.19-.35-.82-.41-1.37-.98-1.92-1.54-.28-.28-.63-.48-1.03-.3-.37.16-.76.34-.66.89.05.28-.16.54-.39.73-.42.36-.94.55-1.51.8.21-.57.37-1.05.56-1.53.13-.33.38-.69.74-.59.56.14.68-.3,1.03-.5-1.26-.5-2.33-.27-3.11.68-.16.19-.44.32-.35.67.12.48-.13.82-.54,1.06-.45.28-.97.44-1.39.8.23-.62.31-1.26.65-1.82.2-.33.43-.64.92-.42.11.05.22.05.27-.08.15-.36.45-.63.71-.98-.58-.02-1.06.14-1.55.24-.77.15-1.92,1.41-1.95,2.17-.02.43-.26.64-.62.77-.49.17-.99.33-1.55.51.32-.42.47-.87.69-1.29.31-.6.63-.72,1.29-.52.15.05.21-.03.26-.11.22-.33.46-.66.57-1.15-1.69.71-3.3,1.35-4.53,2.65-.45.48-.92.97-1.55,1.25-.1.05-.18.1-.19.23-.06.67-.55.85-1.14.93-.71.1-1.47.09-2.08.59.42-.68.83-1.37,1.46-1.88.45-.37.96-.53,1.5-.16.13.09.24.08.35,0,.52-.42,1.05-.83,1.47-1.35.07-.08.15-.19.02-.27-.16-.09-.19.02-.24.16-.26.63-.61.87-1.19.76-.6-.11-1.08-.51-1.62-.77.6-.07,1.1-.34,1.62-.55.38-.16.74-.29,1.11.07.2.19.5.14.72,0,1.1-.71,2.14-1.5,3.43-2.12-1.22-.12-2.28.09-3.34.28-.19.03-.26.1-.3.3-.15.84-.61,1.16-1.47.98-.9-.19-1.6-.76-2.52-1.27.93-.08,1.63-.36,2.34-.57.39-.12.79-.17,1.17.03.66.34.77.34,1.49.04-.66-.36-1.37-.59-2.07-.84-.32-.11-.55-.12-.81.18-.37.44-.91.43-1.37.07-.26-.21-.43-.48-.58-.77-.42-.74-.36-.85.51-1.01.75-.14,1.6.08,1.66.58.08.63.52.66.94.8.43.15.86.29,1.28.46.75.31,1.53.42,2.35.4,1-.03,1.99-.04,2.97-.32,1.26-.36,2.58-.4,4.02-.34-.38-.36-.67-.67-1.04-.76-.83-.21-1.71-.56-2.48.18-.15.15-.36.17-.56.16-.8-.03-1.45-.43-2.11-.81.7,0,1.27-.38,1.91-.52.42-.09.72.03.94.35.08.12.12.25.31.25.54,0,1.08,0,1.72,0-.39-.47-.83-.63-1.16-.92-.08-.07-.16-.03-.25,0-.85.21-1.09.09-1.51-.68-.24-.45-.39-.97-.89-1.25-.16-.09-.1-.21-.06-.33.15-.48.29-.95.46-1.42.08-.24.2-.55.44-.57.63-.07.67-.59.99-1.03-.26.03-.43.04-.61.06-.69.09-1.15.59-1.72.9-.27.14-.43.37-.54.65-.28.7-.55,1.39-1.08,1.96-.06.07-.1.13-.09.23.12.74-.34,1.15-.91,1.49-.5.29-1.06.5-1.58.88.16-.56.3-1.05.43-1.55.08-.33.15-.66.32-.96.34-.59.84-.74,1.45-.42.13.07.19.07.27-.03.42-.5.72-1.05.95-1.79-.83.54-1.61.89-2.44,1.1-.13.03-.22.1-.3.21-.56.78-1.13.98-2.06.67-.49-.16-.96-.37-1.46-.57.41-.41.83-.76,1.35-.95.73-.27,1.46-.42,2.06.26.12.13.26.13.4.09,1.37-.36,2.48-1.17,3.72-1.97-1.02.14-1.91.26-2.79.38-.17.02-.33-.03-.42.22-.24.66-.69.86-1.32.52-.72-.39-1.43-.73-2.28-.77.6-.2,1.2-.36,1.8-.49.57-.12,1.16-.24,1.64.26.09.09.21.05.31.03,1.02-.14,2.03-.29,3.12-.44-2.43-.93-2.46-.94-2.81-1.54,2.01.7,3.97,1.25,6.07.66-.41-.14-.8-.27-1.19-.42-.12-.05-.21-.05-.3.04-.53.49-1.11.35-1.61.03-.64-.41-1.27-.68-2.04-.46-.01,0-.04-.04-.1-.1.86-.36,1.71-.66,2.64-.61.38.02.85.05,1.04.39.52.87,1.44.87,2.27,1.06.17.04.39.06.55-.15-.67-.42-1.35-.8-1.98-1.26-.52-.37-1.03-.42-1.64-.33-.83.13-1.68.33-2.5.04-.6-.22-1.15-.43-1.79-.19.61-.52,1.6-.57,2.23-.13.15.1.27.25.47.24.74-.03,1.46-.16,2.25-.35-.48-.36-.87-.67-1.24-1.01-.74-.71-1.74-.5-2.63-.65-.05,0-.13.06-.17.11-.48.47-1.01.42-1.55.11-.64-.38-1.29-.73-2.08-.74.78-.45,1.58-.83,2.49-.76.54.04,1.04.25,1.17.86.03.13.08.18.21.19.58.05,1.17.1,1.89.16-.98-.85-1.78-1.7-2.89-2.18-.23-.1-.43-.19-.69.03-.52.44-.99.41-1.52-.03-.3-.24-.51-.55-.71-.87-.33-.53-.33-.54.29-.7.48-.12.97-.16,1.45.03.43.18.75.44.78.94,0,.09.12.12.21.14.65.18,1.24.49,1.88.87-.07-.38-.18-.62-.55-.71-.39-.09-.62-.36-.7-.74-.13-.58-.25-1.16-.39-1.84.5.53,1.07.8,1.55,1.17.52.4.6.8.19,1.27-.19.22-.08.34,0,.51.48,1.02,1.52,1.51,2.3,2.25-.19-.63-.36-1.25-.33-1.89,0-.14-.08-.22-.16-.32-.47-.52-.49-.86-.05-1.41.29-.36.59-.7.74-1.22.38.46.56.91.59,1.41.04.62-.05,1.18-.76,1.42-.18.06-.13.18-.13.3.09,1.82,1.27,2.87,2.78,3.69-.38-.59-.6-1.24-.81-1.9-.05-.16-.13-.29-.27-.39-.38-.26-.42-.65-.34-1.05.13-.66.52-1.2.85-1.76ZM85.46,82.84c.18-.17.37-.34.54-.52,1.93-2.12,3.65-4.39,5.13-6.83,6.36-10.46,8.23-21.75,6.32-33.65-1.44-8.98-5.43-16.84-11.64-23.63-.66-.72-.53-.87-1.39-.02-.38.38-.76.75-1.36.36-.06-.04-.19-.04-.26,0-.55.25-1.05.56-1.51,1.07.78,0,1.45,0,2.13,0,.17,0,.25-.03.34-.19.33-.58.73-.72,1.42-.51.79.25,1.36.77,2,1.44-.85-.11-1.55.07-2.27.18-.39.06-.77,0-1.05-.31-.1-.11-.21-.19-.38-.17-.64.07-1.28.14-1.97.21.17.27.4.36.59.47.23.14.38.41.75.36,1.03-.13,1.58.28,1.73,1.29.06.4.06.8.1,1.32-.45-.44-.95-.56-1.41-.76-.71-.32-.91-.67-.82-1.42.02-.19-.07-.28-.2-.4-.81-.75-1.71-1.12-2.82-.63-.21.09-.46.1-.68.18-.61.22-1.16.53-1.69.98.6.15,1.07.27,1.58,0,.29-.14.61.05.87.2.44.25.79.61,1.19,1.05-.61-.05-1.13,0-1.64.1-.48.1-.81-.13-.92-.61-.03-.12,0-.25-.14-.32-.33-.17-1.4-.09-1.71.14-1.43,1.04-2.78,2.19-4.29,3.15-.57.36-1.11.78-1.66,1.18.96.09,1.9.08,2.79-.16.54-.15,1.02-.55,1.52-.83.11-.06.13-.16.14-.27.04-.48.36-.72.81-.81.57-.12,1.14-.23,1.71-.34-.44.4-.65.95-1.07,1.31-.37.32-.76.66-1.3.27-.09-.07-.17-.04-.25,0-.28.18-.57.36-.85.54.84.05,1.65.24,2.47-.12.91-.4,1.75-.97,2.74-1.21.35-.08.63-.17.67-.62.02-.3.33-.45.61-.56.73-.28,1.39,0,2.06.24-.52.17-.81.58-1.16.91-.4.38-.84.59-1.35.19-.15-.12-.3-.1-.47-.05-.95.28-1.78.77-2.54,1.42.44.1.84.19,1.25.29.35.08.7.2,1.07.14,1.03-.17,2.03-.45,3-.8.22-.08.39-.16.42-.42.03-.38.3-.55.64-.63.6-.13,1.17-.29,1.45-.92-.09.69-.19,1.36-.66,1.9-.28.32-.68.59-1.05.35-.4-.27-.65-.11-.98,0-.6.21-1.22.36-1.82.57-.22.07-.49.04-.68.25.59.25,1.12.52,1.76.46.91-.08,1.81-.21,2.7-.43.13-.03.3-.03.26-.26-.12-.6.3-.79.78-.89.77-.17,1.54-.11,2.39.01-.49.58-.91,1.14-1.55,1.48-.46.24-.93.35-1.37-.04-.11-.1-.23-.1-.35-.07-.93.22-1.86.45-2.78.68.81.78,1.86.84,2.89.93.11,0,.21,0,.28-.12.32-.53.76-.39,1.17-.14.57.35,1.08.79,1.93.96-.71.14-1.24.27-1.78.33-.58.07-1.1-.06-1.37-.64-.04-.08-.05-.19-.16-.18-.46.02-.91-.16-1.5-.07.99.55,1.71,1.25,2.65,1.63.15.06.29.18.5.06.74-.43,1.18-.37,1.75.26.43.48.8,1,1.2,1.5-.69-.25-1.42-.15-2.11-.29-.51-.1-.89-.33-1.01-.85-.03-.13-.04-.25-.19-.29-.79-.26-1.52-.66-2.24-1.12-.08.35.05.58.29.73.41.25.52.61.48,1.05-.05.47-.09.94-.14,1.48-.37-.47-.71-.86-1.01-1.27-.23-.31-.31-.66-.06-.99.37-.49.35-1.05-.16-1.4-2.03-1.39-4.12-2.65-6.71-2.75-.71-.03-1.43-.06-2.14.1.34.16.68.28,1.02.39.4.13.81.37,1.2-.04.1-.11.27-.06.42-.01.77.25,1.21.96,1.96,1.26-.58-.02-1.09.17-1.62.22-.65.06-1.02-.17-1.15-.78-.05-.22-.18-.23-.32-.29-1.59-.74-3.22-.96-4.9-.3-.22.08-.46.12-.7.13-.71.06-1.26.39-1.75.88-2.65,2.62-4.68,5.67-6.56,8.83-.02.03.02.09.04.17,2.14-1,4.58-1.32,6.48-2.99-.38-.05-.44-.44-.83-.39-.44.06-.68-.25-.75-.62-.08-.43-.06-.87.07-1.3.33.3.63.58.92.87.17.17.34.4.19.62-.26.37.07.45.26.6.3.23.38-.08.49-.22.35-.43.84-.83.27-1.51.29.11.28.34.49.37.27-.67.59-1.33.75-2.05.07-.31.12-.61-.21-.86-.28-.22-.23-.55-.07-.83.22-.4.46-.8.59-1.31.25.52.48.96.57,1.45.06.34.07.73-.28.91-.45.23-.43.58-.42.98.58-.29,1.18-.28,1.8-.29-.65.94-1.02,1.09-1.94.8-.32,1.45-.87,2.8-1.96,3.91.72-.11,1.4-.25,2.07-.4.63-.14,1.14-.46,1.54-.95.1-.12.11-.37.37-.31h-.02c-.12.48-.58.73-.91,1.14.15-.01.25,0,.33-.03.97-.22,1.69-.82,2.31-1.53.31-.36.66-.7.54-1.26-.07-.3.18-.54.42-.7.69-.45,1.39-.89,1.86-1.59-.18.81-.26,1.63-.6,2.38-.3.67-.62.81-1.33.64-.13-.03-.24-.09-.33.06-.48.73-1.11,1.33-1.98,1.91.83.03,1.48.01,2.13.12.16.03.27-.08.38-.17.59-.48,1.13-1,1.55-1.64.41-.63.82-1.26,1.24-1.88.22-.32.49-.58.46-1.03-.02-.28.16-.55.41-.72.58-.4,1.28-.62,1.78-1.16-.25.67-.29,1.35-.51,1.98-.25.71-.67.93-1.39.66-.26-.1-.32,0-.42.16-.41.62-.82,1.24-1.31,1.99.36-.19.57-.31.79-.41.25-.11.5-.2.76-.29.09-.03.13-.08.18-.17.4-.82.58-.92,1.47-.79.59.09,1.16.13,1.86-.01-.56.44-1.01.84-1.5,1.16-.53.34-1.1.49-1.66,0-.07-.06-.13-.11-.24-.05-.45.25-.98.37-1.39.74.51.24,1.04.33,1.55.46.17.04.31.04.45-.1.29-.3.62-.23.96-.1.71.27,1.12.86,1.64,1.36-.57-.21-1.13-.12-1.69-.08-.51.04-.92-.1-1.04-.64-.05-.21-.19-.23-.35-.27-.53-.12-1.06-.25-1.59-.37-.18-.04-.35-.1-.5.06-.42.45-.85.9-1.33,1.39,2.22.44,4.3,1.16,6.43,1.7.23.06.38.01.54-.12.65-.53,1.38-.93,2.19-1.19.16-.05.22-.11.27-.27.19-.76.66-1.09,1.46-1.01.58.06,1.12.28,1.72.56-.67.19-1.07.64-1.56.98-.46.32-.93.43-1.39,0-.14-.13-.28-.13-.45-.07-.76.26-1.44.66-2.07,1.24,1.63.45,3.22.72,4.83.92-.22.06-.44.06-.65.06-1.57-.04-3.12-.28-4.67-.55-.16-.03-.41-.21-.44.15l-.03.03c-.31-.15-.6-.36-.92-.44-2.07-.57-4.14-1.17-6.32-1.21-1.33-.03-2.65.05-4.07.39,1.34.54,2.56,1.05,3.59,1.91.23.19,1.18.07,1.22-.13.14-.77.74-.81,1.33-.82.47,0,.94.04,1.51-.05-.37.41-.66.78-.99,1.09-.45.41-1.02.55-1.57.26-.41-.22-.75-.16-1.17.01.6.48,1.33.63,1.96.96.14.07.19-.04.27-.1.54-.43,1.09-.37,1.5.17.17.23.27.5.42.75.11.18.22.48.45.37.29-.14.58-.43.5-.77-.13-.53.14-.83.53-1.05.57-.32,1.21-.46,1.87-.59-.56.42-.59,1.08-.83,1.64-.24.55-.42.64-1.02.48-.11-.03-.26-.21-.36.01-.3.68-.85,1.17-1.4,1.71.68.28,1.3.22,1.92.05.21-.06.35-.15.31-.41-.05-.36.1-.66.43-.85.56-.32,1.27-.39,1.68-.98-.16.66-.17,1.31-.47,1.89-.31.6-.73.76-1.34.48-.17-.08-.29-.09-.45,0-.56.28-1.19.33-1.77.18-.7-.18-1.06.19-1.53.57,1.03.23,2.02.41,2.97.69.77.22,1.34-.17,1.97-.42.12-.05.13-.16.14-.27.04-.46.35-.72.75-.9.5-.23,1.02-.43,1.45-.82-.17.63-.33,1.25-.58,1.83-.31.71-.8.83-1.47.42-.11-.07-.18-.07-.29-.02-.29.14-.59.26-.94.42,1.3.38,2.54.8,3.81,1.09.66.15,1.31-.22,1.95-.43.05-.02.1-.11.11-.17.06-.68.59-.82,1.13-.87.63-.06,1.26-.1,1.88-.32-.43.4-.76.86-1.14,1.28-.38.42-.93.71-1.41.46-.49-.26-.81-.06-1.2.04-.23.06-.46.11-.72.17.1.05.17.11.25.13,1.57.5,3.16.82,4.82.81-1.27.08-2.54.24-3.8-.13.39.32.79.55,1.12.88.08.08.14.1.28.06.54-.16.92,0,1.21.51.3.53.44,1.11.55,1.73-.28-.52-.82-.62-1.29-.83-.46-.2-.93-.41-.75-1.05.04-.14-.05-.19-.13-.26-1.19-1.07-2.67-1.47-4.26-1.81.06.09.08.13.1.15,1.29.88,2.57,1.77,3.35,3.16.09.16.22.14.37.12.63-.09,1,.25,1.22.77.25.57.34,1.18.45,1.9-.5-.48-1.09-.6-1.61-.83-.47-.21-.89-.55-.7-1.06.37-.98-.54-1.27-.86-1.86-.04.22-.03.41,0,.6.1.66-.23,1.35.2,1.99.12.18.01.45-.1.66-.26.47-.61.86-1.08,1.17.21-.48.11-.94,0-1.41-.1-.46-.08-.92.56-1,.16-.02.21-.11.26-.23.25-.71-.19-2.22-.8-2.68-2.15-1.63-4.58-2.55-7.33-2.6-.36,0-.73-.08-1.17.04,1.13.55,2.1,1.18,2.97,1.94.54.47,1.53.52,2.12.08.27-.2.59-.22.89-.1.64.25,1.12.7,1.57,1.2-.59-.21-1.13-.07-1.68.08-.32.08-.69.14-.83-.19-.3-.69-.88-.47-1.49-.55.43.45.72.87,1,1.31.34.54.91.77,1.57.65.23-.04.44-.02.63.11.39.27.77.54,1.19.84-.51.12-.96.19-1.42.16-.28-.02-.55-.12-.6-.38-.11-.54-.57-.54-1.01-.71.1.33.19.6.26.87.07.29.12.58.17.87.73-.22,1.34.19,1.7,1.16-.57-.32-1.17-.38-1.71-.61-.09.19-.11.34.09.48.5.36.49.84.26,1.33-.22.49-.58.89-1.01,1.25.18-.53,0-1-.19-1.48-.24-.58-.11-.85.48-1.12.19-.09.21-.2.19-.38-.25-2.53-1.6-4.37-3.79-5.66-1.89-1.11-4-1.5-6.17-1.69-.99-.09-1.99-.07-3.08,0,1.05.92,2.02,1.76,2.98,2.6.41.36.78.02,1.17-.04.32-.05.32-.24.33-.5.01-.32.26-.52.56-.58.64-.13,1.27-.03,2,.19-.59.2-.84.61-1.19.92-.25.22-.54.4-.84.25-.57-.28-1.02.01-1.61.18.42.21.54.7.96.69.58-.01,1.21.07,1.69-.43.17-.18.46-.23.72-.2.66.09,1.2.43,1.89.76-.61.12-1.03.33-1.47.51-.4.17-.92.28-1.16-.1-.33-.53-.75-.34-1.16-.33-.34.01-.36.15-.15.39.3.33.59.68.86,1.03.51.66,1.54.76,2.15.2.15-.14.33-.21.53-.27,1.01-.31,1.81.17,2.78.67-.68.11-1.19.22-1.74.49.25.03.42.05.67.08-.83.3-1.82.38-2.13.05-.46-.49-1-.39-1.56-.41.22,1.08,1.13,1.39,1.96,1.8.08.04.17.03.26,0,.83-.32,1.34-.16,1.83.57.4.6.41,1.28.49,2-.49-.3-1-.38-1.48-.55-.79-.27-1.04-.6-1.06-1.41,0-.18-.02-.3-.2-.38-.44-.2-.88-.41-1.38-.65.14,1,.27,1.94.4,2.89.02.11.06.17.18.23.83.41,1.03.98.7,1.89q-.28.79-.98.34c-.17-.11-.33-.22-.47-.36-.6-.58-.6-1.2.05-1.73.21-.18.22-.34.17-.56-.21-.88-.41-1.77-.64-2.64-.07-.26-.1-.56-.35-.74-.31.62-.62,1.22-.93,1.83-.05.1-.2.2-.03.32.78.56.48,1.21.14,1.84-.36.66-.82,1.27-.92,2.18-.32-.73-.54-1.33-.61-1.97-.08-.79.01-1.58.78-2.02.35-.2.54-.44.67-.77.16-.38.32-.75.46-1.14.25-.74-.35-1.89-1.13-2.19-.26.61.47,1.06.28,1.68-.18.57-.48,1.1-.46,1.83-.49-.58-.77-1.11-.8-1.73-.02-.41.05-.82.48-1.06.43-.24.54-.86.19-1.21-1.53-1.53-3.25-2.81-5.31-3.59-.74-.28-1.52-.44-2.43-.28,1.55,1.04,2.49,2.45,3.29,3.95.5.94,1.34,1.54,2.15,2.17.09.07.19.1.3.1.43-.04.61.24.76.56.26.55.2,1.13.15,1.8-.37-.42-.77-.66-1.12-.96-.33-.27-.52-.6-.29-1.03.08-.16.05-.25-.1-.35-.34-.23-.65-.49-1.09-.67,0,.3.03.55,0,.8-.05.4-.04.71.45.86.27.09.36.38.34.67-.02.37-.12.72-.28,1.16-.25-.47-.56-.81-.91-1.22-.06.29-.14.52-.13.73.01.26-.25.54.06.79.35.29.42.71.34,1.13-.11.63-.14,1.25.04,1.99-.53-.53-.99-.96-1.32-1.49-.34-.55-.36-1.22.08-1.46.57-.32.5-.79.56-1.26.03-.26.07-.53.16-.78.39-.99.52-1.88-.41-2.75-.73-.69-.84-.75-1.33.17-.12.23-.2.49-.27.75-.05.16-.03.31.14.42.49.33.48.81.35,1.29-.18.64-.42,1.27,0,1.93-.69-.39-1.22-.89-1.54-1.57-.22-.48-.33-1.11.12-1.38.65-.4.65-.96.79-1.53.03-.12.06-.26.14-.34.77-.79.28-1.39-.3-1.99-.35-.36-.69-.73-1.08-1.06-.47-.39-1.02-.63-1.63-.7-1.64-.17-3.17.12-4.5,1.14-2.38,1.83-3.86,4.19-4.33,7.11-.64,4-.31,7.95.56,11.9.67,3.05,2.28,5.36,5.09,6.9,1.42.77,2.79,1.63,4.17,2.47,1.32.81,2.78,1.23,4.31,1.49,1.1.19,2.25.12,3.29.53,1.03.4,2.06.71,3.16.89.92.15,1.81.28,2.71.07,1.03-.24,2.05-.52,3.07-.8.77-.21,1.52-.18,2.24.19,1.58.81,3.26,1.27,5.05,1.35-1.31.23-2.56-.14-3.96-.44.83.76,1.47,1.47,2.01,2.27-.18-.09-.28-.28-.42-.41-.77-.71-1.51-1.45-2.35-2.08-.62-.46-1.3-.65-2.06-.49-1.32.29-2.58.76-4.08,1.01.93.33,1.69.64,2.38,1.06,1.1.67,2.28,1.08,3.58,1.24.96.12,1.92.34,2.69,1-1.54-.86-3.35-.55-5.03-1.15.69.77,2.19,1.61,3.62,2.05.65.2,1.31.38,1.97.56-1.65-.05-3.18-.55-4.65-1.29.43.68.78,1.34.9,2.21-1.05-2.47-2.75-4.13-5.28-4.94-.72-.23-1.45-.35-2.21-.29-.3.03-.37.16-.19.37.76.89,1.36,1.91,2.59,2.36,1.49.54,2.61,1.61,3.63,2.77-1.23-.91-2.35-1.98-3.97-2.48.63.81,1.22,1.52,1.63,2.33.2.38.46.6.87.74,1.04.35,2.03.8,2.72,1.69.14.18.26.14.4.01,1.25-1.09,2.48-2.21,3.54-3.47ZM33.75,29.79c.09-.43.4-.81.04-1.28-.22-.28-.11-.66.13-.94.2-.23.41-.46.64-.66.21-.18.37-.64.58-.55.31.13.29.57.34.9.03.21.03.43,0,.64-.08.62-.42.98-1.07,1.09-.24.04-.24.17-.27.33-.16,1.01-.17,1.98.54,2.84.49.6.94,1.22,1.42,1.83.05.07.09.19.23.14-.06-.43-.14-.85-.18-1.27-.04-.36.07-.72-.32-1-.21-.15-.18-.47-.1-.71.23-.65.75-1.08,1.25-1.65.07.69.14,1.24.17,1.78.02.35-.06.71-.47.81-.3.08-.34.24-.34.5,0,1.38.56,2.48,1.53,3.52.79.84,1.49,1.4,2.66.86.08-.04.18-.05.27-.05.43-.02.82.06,1.14.4.45.48,1.18.51,1.81.1-1.08-.08-1.97-.69-3-.84-.24-.03-.43-.2-.55-.41-.31-.51-.54-1.06-.95-1.53.53.2,1.09.24,1.6.4.79.24.99.56.87,1.34-.02.11-.09.22.06.25.73.14,1.41.49,2.32.57-.21-.14-.3-.17-.35-.24-.09-.12-.45-.1-.28-.34.12-.18.29.03.41.12.68.51,1.49.59,2.34.74-.46-.82-.96-1.54-1.5-2.23-.37-.47-.74-.96-1.41-1.02-.94-.08-1.86-.62-2.85-.09-.43.23-.9.04-1.26-.28-.38-.34-.56-.79-.77-1.31.33.08.56.14.89.23-.35-.28-.75-.28-1.06-.59.74-.05,1.39,0,2.01.26.43.17.78.41.7.95-.03.17.02.25.22.28.86.12,1.72.25,2.64.39-.48-.66-.99-1.24-1.38-1.9-.45-.77-1.17-1.01-1.97-1.18-.13-.03-.27-.07-.37.03-.45.45-.87.2-1.27-.07-.31-.21-.61-.44-1.12-.53.52-.22.92-.35,1.34-.37.37-.02.84-.03,1,.29.33.68.97.51,1.61.78-.62-.84-.97-1.68-1.79-2.18-.19-.11-.31-.2-.49.04-.26.35-.64.37-1.04.23-.72-.26-.99-.86-1.23-1.52.37,0,.58.33.95.29-.34-.31-.81-.34-1.13-.69.54-.05,1.01.02,1.48.11.41.09.88.23,1.04.62.19.44.53.56.95.74-.04-.35-.07-.64-.11-.94.49.92.91,1.84,1.51,2.67.77,1.07,1.64,2.05,2.51,3.03,1.01,1.14,2.17,2.21,2.74,3.64.39.98,1.37,1.42,1.81,2.38.42-1.9-.09-3.48-1.17-4.92-1-1.34-2.16-2.55-3.41-3.67-1.59-1.42-2.98-2.98-3.77-4.97-.11-.28-.28-.54-.51-.75-.5-.45-1.07-.47-1.57-.07-.23.18-.49.22-.77.2-.79-.07-1.57-.25-2.38-.26.49-.2.81-.61,1.25-.85.55-.31,1.2-.63,1.73-.15.4.37.76.34,1.2.31.56-.03.6-.09.34-.57-.08-.15-.18-.27-.33-.34-.45-.24-.9-.48-1.34-.72-.08-.04-.15-.06-.25-.03-.78.18-.99.09-1.42-.57-.35-.55-.6-1.17-1.26-1.48.8,0,1.52.2,2.2.57.41.22.69.53.65,1.02-.02.18.04.3.22.38.45.19.89.38,1.35.58,0-.6,0-1.14,0-1.69,0-.28-.07-.49-.4-.6-.35-.12-.54-.42-.57-.79-.09-1.04.46-1.83,1.07-2.77.02.45.04.76.16,1.03.13.29.29.57.45.85.37.68.32,1.17-.23,1.67-.13.12-.17.22-.14.37.15.98.18,1.99.59,2.91.06.14.06.5.35.32.23-.14.67-.26.42-.71-.32-.61-.26-.89.29-1.32.34-.27.71-.51.87-.96.14.71.52,1.37.26,2.12-.13.37-.34.63-.8.54-.42-.07-1.04.63-.89,1.03.26.71.63,1.36,1.08,1.97.07.1.13.23.28.23.24,0,.96-.94.84-1.14-.43-.72-.04-1.18.49-1.59.22-.17.44-.58.64-.48.3.16.36.59.41.94.05.36-.03.71-.23,1.02-.11.17-.26.37-.46.34-.57-.09-.7.31-.91.66-.09.15-.21.3-.34.41-.18.15-.21.26-.06.48.46.65,1.04,1.19,1.64,1.71.09.08.19.18.34.12.4-.14.74-1.27.49-1.6-.31-.4-.33-.81-.06-1.24.22-.34.48-.67.64-1.09.2.3.37.57.54.84.06.09.11.19.15.28.2.48.13,1.17-.25,1.3-.57.2-.57.64-.71,1.06-.05.17-.11.34-.2.49-.21.34-.15.57.18.84,1.2.99,2.33,2.05,3.26,3.3.06.09.08.25.25.21.28-2.14.12-4.22-.63-6.25-.53-1.44-1.25-2.8-1.92-4.18-.33-.68-.78-1.24-1.43-1.63-.31-.19-.57-.63-1.02-.14-.14.15-.49.06-.72-.09-.28-.18-.5-.42-.67-.69-.33-.53-.59-1.13-1.24-1.43.78.09,1.5.25,2.18.55.32.14.7.31.76.65.14.78.89.87,1.36,1.27-.45-1.02-.84-2.05-1.24-3.07-.24-.6-.88-.84-1.47-.58-.25.11-.52.09-.73-.08-.48-.4-.93-.82-1.46-1.3.45-.03.81-.09,1.17-.08.52,0,1.05.18,1.23.65.21.52.58.52,1.01.6-.17-.49-.34-.94-.48-1.4-.06-.2-.15-.35-.33-.47-.93-.6-1.86-1.2-2.79-1.79-.13-.08-.27-.24-.44-.14-.39.25-.88.36-1.12.81-.33.61-.63,1.25-1.19,1.71-.08.07-.08.15-.07.24.06.53-.29.82-.7,1.04-.48.26-.99.47-1.52.72.15-.52.3-.99.44-1.46.09-.33.22-.64.47-.89.38-.37.75-.4,1.16-.05.19.16.26,0,.34-.08.36-.39.6-.86.91-1.43-.79.39-1.5.67-2.24.84-.18.04-.26.18-.36.31-.36.46-.84.6-1.41.5-.58-.1-1.05-.43-1.64-.62.31-.31.63-.52.96-.7.72-.38,1.44-.53,2.11.11.16.15.34.13.51.09,1.08-.27,2.01-.83,2.97-1.38-.85-.09-1.67.04-2.49.11-.04,0-.08.06-.1.09-.37.72-.58.8-1.26.42-.28-.16-.53-.19-.83-.09-1.44.5-2.91.94-4.42,1.21-.22.04-.3.11-.22.36.15.47.24.96.42,1.43.27.74.14,1.22-.47,1.69-.15.12-.14.23-.14.36,0,.36.04.72.16,1.05.44,1.18.9,2.36,1.34,3.54.14.38.26.76.38,1.14.01-1.09.25-2.11.71-3.09.13-.27-.1-.92-.33-1.01-.8-.32-1.08-.88-.82-1.68.22-.67.69-1.18,1.16-1.71-.2.6.06,1.1.29,1.6.26.57.33,1.13-.13,1.64-.22.24,0,.4.08.66.77-1.08.89-2.24.93-3.45.16.1.17.23.21.34.26.8.01,1.54-.29,2.27-.28.69-.71,1.33-.9,2.05-.4,1.48-.29,2.96-.03,4.44.12.67.35,1.32.7,1.93ZM72.52,92.01c.4-1.36.12-2.64-.23-3.95-.24-.88-.65-1.33-1.62-1.55-3.37-.77-5.57-2.68-6.07-6.17-.22-1.55-1.11-2.71-2.4-3.6-.91-.63-1.9-1.13-2.9-1.61-.45-.22-.89-.44-1.41-.71.2.77.4,1.4.75,1.99.6,1.01,1.43,1.84,2.28,2.65.73.7,1.57,1.32,2.05,2.21.77,1.44,1.8,2.71,2.73,4.05.91,1.31,1.57,2.72,1.76,4.31.05.43.25.76.6,1.04.51.41,1.11.68,1.66,1.03.41.26.84.48,1.24.94-.98-.49-1.83-.92-2.82-1.41.39.79.54,1.48.56,2.2-.3-1.26-1.04-2.25-1.93-3.26-.26,1.9-.94,3.57-2.07,5.17.02-.17.01-.24.04-.3,1-1.83,1.31-3.86,1.87-5.82.07-.23.12-.46.05-.68-.45-1.62-1.39-2.97-2.44-4.32-.04.1-.07.13-.06.15.23,1.87-.29,3.55-1.41,5.07-.08.11-.12.2-.1.34.12.88.22,1.76.34,2.64.11.82.25,1.64.37,2.45-.67-1.37-1.02-2.83-1.36-4.36-1.36,1.5-1.88,3.17-1.45,5.19-.27-.29-.3-.52-.36-.74-.43-1.66-.11-3.21.98-4.52.67-.8.49-1.45.04-2.2-.23-.38-.49-.75-.82-1.07-.29-.27-.56-.59-1.01-.74.03,2.02-.97,3.57-2.25,4.98-.35.38-.56.69-.18,1.16.16.2.23.48.32.73.39,1.19.49,2.4.22,3.62-.05-.1-.05-.21-.06-.31-.12-1.33-.51-2.57-1.24-3.71-.06-.1-.09-.3-.29-.22-.23.09-.64.93-.57,1.18.17.64.21,1.3.15,1.96-.08.72-.39,1.44-.78,1.74.02-.14.03-.27.06-.39.38-1.62.05-3.1-.92-4.45-.74-1.04-1.71-1.89-2.58-2.86-.6,1.01-.65,2.05-.44,3.12.36,1.82,1.31,3.37,2.36,4.88.15.22.33.23.56.21,1.53-.11,3.05-.34,4.56-.62,6.06-1.12,11.71-3.26,16.97-6.39,2.11-1.26,4.09-2.68,5.98-4.23.18-.15.36-.25.09-.49-.81-.73-1.79-1.11-2.87-1.44.05.49.24.91.13,1.39-.05-.21-.12-.38-.14-.56-.06-.7-.39-1.1-1.15-1.15-.31-.02-.6-.14-.91-.2-1.95-.39-3.83-.93-5.42-2.17-.1-.08-.19-.22-.41-.18.41,1.42.93,2.8,1.53,4.15.13.28.43.37.7.47.85.31,1.71.62,2.56.94.22.08.43.19.64.3.2.11.43.19.67.49-1.16-.57-2.27-.84-3.44-1.03.34.38.68.77,1.02,1.15-.07.06-.14.13-.21.19-.52-.58-1.05-1.17-1.57-1.75-.05.02-.09.04-.14.07.48,1.66.99,3.31.19,4.98ZM51.33,11.89c0,.65,0,1.16,0,1.67,0,.2-.01.43-.19.54-.76.46-.41,1.17-.5,1.79.39-.75,1.19-1.29,1.95-1.26-.12.37-.24.74-.37,1.11-.17.47-.43.8-1.01.82-.39.01-.64.43-.54.82.12.46.25.92.37,1.39.17.69.41,1.34.76,2.02.99-1.71,1.73-3.46,2.24-5.3.36-1.3.75-2.6.84-3.95.03-.42-.06-.75-.51-.96-.63-.29-1.24-.6-1.83-.95-1.1-.66-2.09-1.43-2.58-2.67-.15-.37-.44-.69-.66-1.04-.17-.28-.29-.2-.4.04-.06.13-.12.26-.17.39-.3.71-.8,1.15-1.63,1.1-.24-.01-.29.09-.37.27-.21.46-.48.87-1.04,1.02-.29.07-.4.3-.43.6.98-.1,1.18-.17,1.37-.44.42-.59.79-.73,1.49-.52.62.19,1.18.53,1.94.65-.69.26-1.26.48-1.84.68-.51.17-1.01.17-1.39-.29-.1-.13-.2-.17-.37-.11-.41.13-.85.21-1.25.36-.8.3-1.71,1.62-1.67,2.37.01.23,0,.39.34.24.72-.32,1.48-.51,2.27-.57.11,0,.19-.04.27-.14.5-.67.8-.77,1.56-.48.7.27,1.37.62,2.28.67-.79.43-1.44.78-2.19.89-.62.1-1.22.08-1.56-.57-.1-.19-.26-.16-.43-.14-.71.1-1.39.29-2.04.58-.3.13-.43.31-.43.65,0,.52.09,1.02.27,1.51.51,1.4,1.02,2.81,1.55,4.21.26.71.55,1.41.86,2.22.31-1.72.17-3.36-.34-4.78-.07-.19-.14-.29-.37-.3-.46,0-.67-.3-.77-.7-.23-.92.35-1.55.79-2.25.06.46.29.82.49,1.2.25.48.47.98.02,1.49-.05.06-.08.18-.05.25.3.89.52,1.8.69,2.79.22-.37.37-.67.58-.94.2-.26.28-.64.86-.8-1.13,1.62-1.4,3.24-.93,4.98.46,1.7,1.43,3.1,2.71,4.41.16-.59.3-1.08.44-1.58.41-1.46.66-2.95.53-4.47-.05-.56-.35-.75-.88-.53-.31.13-.58.09-.8-.13-.46-.44-.96-.84-1.61-1.09,1.17-.55,2.11-.3,2.7.67.08.14.2.22.34.23.12.01.12-.1.11-.19-.09-.63-.18-1.27-.44-1.86-.16-.36-.89-.8-1.12-.72-.96.33-1.32.22-1.77-.58-.38-.67-.35-1.48-.86-2.12.53.46,1.17.64,1.77.89.44.19.95.43.94.94-.01.65.39.74.87.88.09-.89-.53-1.58-.69-2.46.37.3.44.72.84,1-.11-.41.31-.75-.05-1.07-.41-.37-.37-.79-.11-1.2.28-.44.66-.79,1.16-1.19ZM41.32,9.68s.07-.05.11-.08c-.46-.74-.88-1.5-1.14-2.33-.06-.18-.2-.23-.38-.25-.46-.06-.63-.38-.69-.78-.06-.36.02-.7.13-1.05.17-.5-.06-.96-.3-1.37-.15-.27-.48-.03-.7.02-5.21,1.25-10.06,3.3-14.55,6.14-.15.1-.31.18-.38.37-.35,1.01-.19,1.57.67,2.32.63.55.77,1.27.33,1.95-.13.2-.07.38-.09.63.48-.43.74-.92,1.01-1.39.09-.17.12-.29,0-.48-.5-.86-.39-1.67.27-2.41.36-.4.7-.79.81-1.47.19.52.34.9.47,1.29.08.25.13.52.17.78.15,1.04-.23,1.67-1.22,2.07-.11.04-.19.1-.24.2-.25.53-.5,1.06-.74,1.6-.07.16-.02.31.12.43.15.13.28.05.4-.02.68-.38,1.3-.85,1.61-1.55.29-.65.73-1.13,1.32-1.51.34-.22.66-.46,1.03-.61-.1-.26-.37-.22-.48-.39.46-.34,1.07-.59,1.55-.62.75-.05,1.2.24,1.4.94.04.15.09.21.24.23.66.09,1.29.03,1.99-.23-.78-.41-1.52-.73-2.19-1.25.51-.14.87.18,1.33.29-.38-.47-.74-.89-1.07-1.33-.16-.21-.28-.29-.58-.19-.53.17-1,.01-1.35-.44-.25-.33-.44-.68-.59-1.09.27-.03.44.24.69.14-.27-.27-.73-.22-.99-.59.76-.04,1.44.07,2.08.36.46.21.81.5.68,1.07-.03.12,0,.2.08.29.86.87,1.67,1.76,2.89,2.23,2.05.79,4.05,1.71,6.03,2.65.72.34,1.44.7,2.15,1.05.07-.95-.44-1.47-1.26-1.76-.1-.04-.2-.09-.3-.14-.09-.04-.17-.03-.26.02-.73.37-1.22.26-1.68-.4-.33-.48-.68-.93-1.2-1.22-.29-.17-.6-.31-.96-.49.34-.1.56.19.91.09-.36-.2-.66-.37-.97-.54-.11-.06-.19,0-.28.08-.42.42-.83.46-1.32.04-.56-.48-1.14-.73-1.89-.54.91-.41,1.83-.71,2.88-.36-.25-.3-.48-.55-.7-.81-.09-.11-.19-.13-.33-.1-.54.13-.91-.16-1.21-.54-.79-.99-.41-2.03-.14-3.07.26.63.77,1.05,1.23,1.49.46.44.67.96.55,1.59-.03.16-.05.33.06.46.55.66,1.17,1.24,1.82,1.8-.09-.47-.11-.91-.62-1.21-.49-.28-.68-.83-.62-1.4.07-.6.35-1.13.67-1.71q.09.79.63,1.53c.44.6.43.99-.03,1.59-.04.05-.1.11-.11.17-.07.48.7,1.56,1.19,1.68.48.12.96.22,1.41.42.43.19.82.42.81.96,0,.12.05.19.17.23.37.14.73.28,1.24.49-.43-.86-.51-1.67-.73-2.45-.04-.15-.11-.23-.29-.27-.85-.16-1.65-.52-2.69-.55.95-.48,1.75-.24,2.57-.04-.79-.64-1.62-1.23-2.32-1.95-.06-.06-.16-.09-.25-.11-.51-.15-.79-.52-.9-.99-.16-.72-.28-1.46-.4-2.19-.02-.13-.05-.28.07-.46.15.53.22,1.04.47,1.48.27.49.82.69,1.2,1.07.25.25.24.54.09.84-.07.14-.17.25.03.4.52.39,1.01.81,1.52,1.22ZM28.29,35.45c-.36.31-.41.75-.55,1.14-.15.41-.39.81-.89.69-.66-.15-.81.39-1.08.69-.23.26.17.52.33.76.11.16.26.3.41.43,1.27,1.11,2.82,1.62,4.47,1.85,2.48.34,4.96.64,7.44.96.76.1,1.52.23,2.37.35-1.37-1.66-2.66-3.24-3.97-4.82-.12-.14-.22-.45-.41-.34-.2.12-.51.29-.5.59.03.66-.43.86-.94.99-.4.09-.8.18-1.26.4.35-.54.63-1,.95-1.43.22-.31.53-.52.94-.3.33.17.39-.16.56-.27.2-.13.13-.3,0-.45-.31-.37-.61-.75-.92-1.12-.09-.11-.19-.24-.36-.12-.38.27-.89.45-1.07.88-.34.78-1.1,1.32-1.27,2.19-.04.21-.24.36-.44.46-.52.25-1.06.49-1.67.77.29-.53.41-1.02.57-1.48.13-.37.34-.66.71-.84.36-.17.7-.27.84.25.46-.37.8-.9.88-1.35-.26.11-.51.22-.76.32-.46.2-.98.29-1.36.65-.65.62-1.11.69-1.91.3-.28-.14-.57-.28-.89-.43.19-.16.35-.3.52-.43.86-.64,1.48-.66,2.32-.06.16.12.3.11.45.05.29-.11.58-.21.86-.34.62-.29,1.26-.57,1.83-1.06-.7.06-1.31.11-1.93.18-.17.02-.35-.02-.46.2-.25.53-.58.67-1.06.36-.64-.41-1.27-.7-2.06-.5.76-.27,1.5-.53,2.3-.61.37-.04.59.33.89.32.82-.03,1.65-.14,2.49-.22-.05-.1-.05-.14-.07-.16-1.42-1.59-3.37-2.32-5.33-3.03-.18-.07-.36-.02-.53.05-1.43.64-2.52,1.62-3.2,3.01-.37.77-.45,1.57-.21,2.38.05.17.1.5.27.41.25-.13.61-.31.52-.7-.15-.62-.04-.91.54-1.18.49-.23,1.04-.3,1.61-.38ZM23.06,32.24c.52-.18.95-.44,1.4-.68.4-.21.81-.25,1.12.16.1.13.24.13.38.18.87.27,1.5-.19,2.16-.66-1.13-.38-2.25-.84-3.43-.88-1.1-.04-2.21.2-3.32.34-.41.05-1.04.88-.9,1.22.22.52-.02.86-.39,1.16-.24.19-.52.33-.77.51-.14.1-.39.14-.38.34.01.17.25.19.39.24.51.19,1.04.33,1.55.53.32.13.73.33.65.69-.1.47.21.56.48.75.34.24.66.5.99.75.63.48,1.25.96,2.02,1.55-.64-1.61-.53-3.03.3-4.43-.65-.02-1.26.09-1.86-.31.8-.07,1.39-.76,2.2-.37.04.02.13-.04.18-.09.3-.32.6-.65.9-.97-.36.03-.76-.33-.99,0-.43.6-.96.56-1.55.38-.38-.12-.75-.26-1.13-.38ZM46.86,72.83c-.38.92-.85,1.71-1.51,2.39-.63.64-1.27,1.28-1.93,1.9-1.27,1.19-2.44,2.46-3.27,3.98-.48.88-.81,1.81-.92,2.87.84-.48,1.65-.88,2.41-1.37,2.81-1.82,4.69-4.28,5.41-7.52.16-.73.16-1.48-.2-2.24ZM28.61,15.62c.83-.15,1.37-.49,1.85-.94.29-.27.61-.5.99-.65.67-.26,1.29-.23,1.8.32.1.11.18.15.32.11,1.13-.34,2.29-.6,3.42-1.17-.89-.33-1.72-.63-2.56-.93-.1-.03-.23-.04-.32,0-.71.24-1.43.27-2.16.2-.11,0-.22-.03-.31.05-.59.51-1.17.27-1.7-.08-.32-.21-.45-.13-.61.16-.4.74-.8,1.48-1.46,2.05-.82.71-1.64,1.42-2.64,1.89-.13.06-.31.08-.2.33.29.67.56,1.32,1.46,1.39.29.02.57.12.85.2.33.09.69.12.98.32.26.18.49.41.46.73-.02.23-.22.41-.45.49-.33.12-.63,0-.85-.22-.27-.28-.51-.6-.76-.91-.21-.27-.44-.51-.91-.53.3.42.58.78.84,1.16.37.54.78,1,1.52,1.09.36.04.67.26.98.46.29.19.57.4.96.68-.09-.22-.12-.3-.16-.38-.57-1.03-1.19-2.03-1.39-3.21-.03-.15-.1-.27-.26-.32-.52-.17-.54-.57-.5-1,.04-.49.2-.97,0-1.5.27.12.34.33.48.48.22.23.48.41.82.35.93-.16,1.85-.33,2.77-.5-1.04-.11-2.07.14-3.25-.13ZM55.51,83.12c1.58-2.83.35-9.14-2.01-10.27-.36,1.52-.72,3.04-1.08,4.56-.05.21-.03.42.02.63.26,1.1.69,2.13,1.28,3.1.46.77,1.03,1.45,1.79,1.98ZM62.37,88.51c.8-1.57,1.04-3.07.5-4.65-.31-.91-.85-1.69-1.51-2.38-.98-1.03-2.07-1.96-3.03-3.22,0,.7-.06,1.23-.22,1.73-.14.47-.13.93-.03,1.41.25,1.15.69,2.24,1.02,3.36.04.12.12.22.23.29,1.38.8,2.46,1.86,3.03,3.46ZM71.54,86.07c-.11-.28-.17-.45-.23-.61-.39-1.07-.9-2.09-1.19-3.19-.07-.29-.04-.66-.21-.87-.71-.87-1.25-1.89-2.13-2.62-.72-.61-1.55-1.01-2.57-1.18.41.99.58,1.95.7,2.92.18,1.44.74,2.7,1.92,3.64,1.07.86,2.32,1.37,3.71,1.92ZM49.74,78.28c-.67,1.13-1.67,1.95-2.47,2.94-1.13,1.39-1.16,2.73-.05,4.13,1.35,1.7,2.46,3.47,2.23,5.76.27-.61.45-1.25.88-1.76.18-.21.19-.37.04-.6-.7-1.1-.97-2.32-.96-3.61,0-1.09.23-2.15.39-3.22.18-1.21.3-2.42-.07-3.64ZM57.21,28.13c.67-.61.93-2.11.55-2.78-.06-.1-.13-.15-.24-.19-.97-.35-1.25-.91-.98-1.89.1-.37.34-.7.35-1.16-2.43,1.14-4.04,2.9-4.89,5.32-.24.67-.23.67.48.91.77.26,1.36.88,1.2,1.46-.13.49.05.85.24,1.25.06.12.07.32.26.29.15-.02.21-.19.25-.33.17-.6.29-1.2.3-1.83,0-.3-.06-.49-.38-.6-.34-.13-.53-.43-.64-.76-.29-.87.02-1.63.43-2.54.11.83.53,1.3,1.01,1.76.58.56.54,1.06-.08,1.56-.11.09-.17.18-.14.31.12.57.03,1.13-.09,1.81.7-.74,1.31-1.4,1.92-2.06.26-.28,0-1.75-.33-1.94-.06-.03-.17.01-.26.02-.64.05-1.05-.23-1.16-.86-.14-.76.3-1.3.77-1.9.15.47.41.82.66,1.16.15.21.31.43.25.69-.19.83.39,1.47.53,2.3ZM22.27,84.16c1.09-.32,2.1-.61,3.1-.91,1.72-.51,3.09-1.49,4.15-2.9.62-.83,1.17-1.71,1.95-2.36-1.77-.76-3.17.24-4.63.92-.03.01-.05.05-.07.08-.82.86-1.5,1.81-2.53,2.53-.85.59-1.4,1.6-1.96,2.65ZM44.36,82.82c-.94.76-1.99,1.26-3.04,1.74-.58.26-1.14.55-1.72.82-.23.11-.31.26-.26.51.31,1.58,1.13,2.86,2.37,3.91.13.11.2.15.35,0,2.02-1.91,2.81-4.21,2.3-6.98ZM77.92,84.24c-.88-1.16-1.43-2.38-2.66-3.09-.65-.38-1.07-1.06-1.56-1.63-.34-.39-.65-.82-1.25-.85-.11,0-.23-.1-.32-.18-.83-.72-2.5-.96-3.51-.47.76.61,1.28,1.41,1.82,2.18.87,1.24,1.97,2.23,3.42,2.8,1.27.5,2.59.81,4.05,1.24ZM39.37,79.72c-.69.2-1.22.46-1.75.74-3.09,1.68-3.48,4.67-2.92,7.26.03.12.04.37.24.21.47-.39,1.1-.62,1.42-1.15.39-.65.82-1.26,1.42-1.74.15-.13.22-.26.22-.46-.04-1.71.47-3.29,1.37-4.85ZM56.29,91.35c.62-.83,1.14-1.64,1.52-2.53.31-.71.45-1.44.44-2.22-.01-.61-.27-.95-.86-1.11-.35-.09-.69-.23-1.03-.36-.14-.05-.26-.14-.39.02-.41.54-.89,1.03-1.4,1.49-.16.14-.1.33-.11.5-.05,1.65.81,2.93,1.82,4.2ZM42.16,74.75c-1.08.41-2.11.87-3.11,1.41-2.02,1.09-3.22,2.71-3.46,4.96.03-.02.08-.04.12-.07,1.08-1.03,2.3-1.79,3.84-1.96.25-.03.27-.2.31-.37.15-.61.38-1.18.67-1.74.42-.83.99-1.55,1.63-2.24ZM34.27,80.39c-2.43.62-5.28,3.54-5.51,5.61,2.71-1.04,5.23-2.25,5.51-5.61ZM50.9,35.32c.9-1.11,1.75-2.23,2.69-3.29.29-.32.06-1.59-.34-1.65-.77-.12-.83-.68-1.01-1.22-.09-.29-.07-.65-.5-.82-.62,2.29-.82,4.61-.84,6.98ZM51.42,81.23c-.28,1.22-.56,2.36-.66,3.53-.09,1.02-.03,2.03.37,2.99.05.13.09.51.37.23.72-.74,1.5-1.35,1.4-2.63-.12-1.51-.47-2.85-1.47-4.11ZM27.6,20.66c1.88,2.54,3.35,5.26,4.91,7.93-.59-1.78-.96-3.63-1.87-5.3-.67-1.22-1.67-2.12-3.04-2.63ZM55.05,93.09q.63-.82.04-1.55c-.67-.83-1.24-1.71-1.68-2.67-.12-.27-.2-.75-.36-.77-.3-.05-.48.37-.76.53-.39.23-.32.45-.07.75,1,1.19,2.16,2.27,2.83,3.72ZM30.08,20.63c-.09-.33.26-.73-.14-.98-.31-.2-.33-.48-.32-.79.01-.46.28-.79.55-1.12.31-.37.27-.84.09-1.21-.16-.32-.55-.07-.84-.06-.16,0-.31.04-.48.06.16.4.51.83.16,1.15-.39.35-.22.63-.12.97.23.73.68,1.35,1.11,1.99ZM58.39,32.29c.67.4,1.26.51,1.74-.23.08-.12.33-.13.48-.22.2-.11.47-.03.67-.24-.37-.13-.82-.03-.99-.47-.04-.1-.11.03-.16.06-.62.3-1.2.65-1.73,1.1ZM37.68,13.58c-.28-.09-.42-.04-.58.02-1.06.42-2.13.81-3.26,1.01-.37.06-.55.25-.57.62,1.58-.23,2.9-1.03,4.41-1.66ZM37.03,14.12c.7.25,1.41.17,2.14.02-.72-.56-1.42-.33-2.14-.02ZM57.2,82.77c-.52,1.15-.51,1.19.49,1.39-.16-.46-.31-.9-.49-1.39Z"/>
  <path class="cls-7" d="M81.16,37.6c1.52.68,3.18.86,4.79,1.21.18.04.33.1.52-.03.35-.25.73-.19,1.09-.01.69.35,1.32.81,2.14.9-.71.3-1.41.56-2.16.61-.82.05-1.17-.21-1.31-1-.04-.24-.21-.23-.34-.26-.94-.19-1.89-.37-2.87-.48.62.37,1.23.74,1.97,1.18-.41-.04-.61-.21-.82-.34-.99-.63-2.09-1.08-3.04-1.76,0,0,.03-.03.03-.03Z"/>
  <path class="cls-9" d="M71.96,34.01c-.63-.85-.61-1.1.07-1.9.35-.41.67-.83,1.07-1.25-.09.77.16,1.55-.02,2.32-.15.63-.4.79-1.13.81,0,0,.02.01.02.01Z"/>
  <path class="cls-13" d="M89.89,43.06c-.69-.5-1.37-.5-2.01-.64-.11-.02-.21-.06-.31-.1-.53-.23-.82-.68-.61-1.02.28-.44.71-.24,1.06-.12.58.19,1.27.89,1.86,1.88Z"/>
  <path class="cls-5" d="M68.58,30.64c.23.41.37.74.4,1.12.02.28-.1.5-.35.51-.26.01-.33-.25-.35-.49-.03-.38.13-.72.29-1.15Z"/>
  <path class="cls-3" d="M22.23,16.97c.57.24,1.14.4,1.72.56.32.09.61.24.8.52.17.26.33.52.08.82-.25.3-.57.29-.89.16-.32-.13-.63-.33-.75-.66-.2-.54-.51-1-.95-1.4Z"/>
  <path class="cls-8" d="M25.88,51.89c.15-.49-.01-.93-.16-1.37-.1-.28-.23-.57-.19-.88.04-.3.24-.69.49-.67.33.04.76.19.79.67.02.28.01.56-.07.84-.17.53-.44,1-.86,1.39Z"/>
  <path class="cls-11" d="M63.14,21.53c-.01.6-.32,1.07-.9,1.36-.25.12-.49.12-.72-.05-.23-.17-.3-.39-.26-.66.04-.34.22-.6.49-.8.32-.23.68-.43.92-.75.15-.2.22-.09.29.07.11.25.17.5.19.82Z"/>
  <path class="cls-10" d="M69.97,9.85c-.37.39-.59.87-.88,1.29-.28.4-.62.72-1.17.56-.23-.07-.41-.2-.39-.5.05-.56.45-.76.93-.9.5-.14,1.04-.19,1.52-.46Z"/>
  <path class="cls-12" d="M55.45,18.2c.03-.33.17-.62.15-.97-.02-.3.28-.53.55-.69.28-.17.54-.36.72-.66.03.53.01,1.04-.15,1.53-.09.27-.29.53-.59.46-.39-.1-.5.12-.66.35,0,0-.02-.02-.02-.02Z"/>
  <path class="cls-4" d="M41.76,34.37c.27.32.68.46,1.04.66.37.21.7.45.73.92.02.43-.24.67-.68.57-.4-.08-.7-.29-.79-.71-.1-.48-.2-.97-.3-1.45Z"/>
  <path class="cls-1" d="M65.57,39.01c.23,1.17-.3,1.76-1.98,2.08.53-.46.62-.99.75-1.52.16-.66.7-.61,1.22-.57,0,0,.01.01.01.01Z"/>
  <path class="cls-6" d="M44.24,38.43s-.1,0-.1,0c.03.83-.61,1.01-1.24,1.19-.18.05-.36.12-.57.19.66-1.56.96-1.77,1.91-1.39,0,0,0,0,0,0Z"/>
</svg>