<?xml version="1.0" encoding="UTF-8"?>
<svg id="Layer_1" data-name="Layer 1" xmlns="http://www.w3.org/2000/svg" version="1.1" xmlns:xlink="http://www.w3.org/1999/xlink" viewBox="0 0 64 64">
  <defs>
    <style>
      .cls-1 {
        fill: url(#linear-gradient);
      }

      .cls-1, .cls-2, .cls-3, .cls-4, .cls-5, .cls-6 {
        stroke-width: 0px;
      }

      .cls-2 {
        fill: url(#linear-gradient-6);
      }

      .cls-3 {
        fill: url(#linear-gradient-5);
      }

      .cls-4 {
        fill: url(#linear-gradient-2);
      }

      .cls-5 {
        fill: url(#linear-gradient-3);
      }

      .cls-6 {
        fill: url(#linear-gradient-4);
      }
    </style>
    <linearGradient id="linear-gradient" x1="1.5" y1="66" x2="63.16" y2="66" gradientTransform="translate(0 -34)" gradientUnits="userSpaceOnUse">
      <stop offset=".09" stop-color="#fad66c"/>
      <stop offset=".65" stop-color="#d9c50f"/>
      <stop offset="1" stop-color="#fad66c"/>
    </linearGradient>
    <linearGradient id="linear-gradient-2" x1="25.55" y1="15.32" x2="26.43" y2="15.32" gradientTransform="translate(-.52 1.95)" xlink:href="#linear-gradient"/>
    <linearGradient id="linear-gradient-3" x1="29.37" y1="15.52" x2="30.25" y2="15.52" gradientTransform="translate(-1.12 3.66)" xlink:href="#linear-gradient"/>
    <linearGradient id="linear-gradient-4" x1="32.79" y1="14.51" x2="33.68" y2="14.51" gradientTransform="translate(-1.08 5.28)" xlink:href="#linear-gradient"/>
    <linearGradient id="linear-gradient-5" x1="33.1" y1="14.37" x2="33.98" y2="14.37" gradientTransform="translate(2.39 4.64)" xlink:href="#linear-gradient"/>
    <linearGradient id="linear-gradient-6" x1="35.73" y1="15.13" x2="36.62" y2="15.13" gradientTransform="translate(2.85 2.2)" xlink:href="#linear-gradient"/>
  </defs>
  <path class="cls-1" d="M30.5,51.81h2v4h-2v-4ZM43.45,30.81h-2v2.62l-3.42-2.43-1.16,1.63,4.58,3.26v5.31l-2.55-1.28-.89,1.79,3.45,1.72v12.38h2v-9.59l3.71-3.71-1.41-1.41-2.29,2.29v-7.51l4.58-3.26-1.16-1.63-3.42,2.43v-2.62h-.02,0ZM57.38,55.81h2v-9.65l3.78-4.73-1.56-1.25-2.22,2.77v-2.15h-2v2.15l-2.22-2.77-1.56,1.25,3.78,4.73s0,9.65,0,9.65ZM50.86,47.4l-3.28-2.51-1.21,1.59,5.05,3.86,1.06,5.66,1.97-.37-1.07-5.68,2.51-4.24-1.72-1.02-1.35,2.28-.43-2.3-1.97.37s.44,2.36.44,2.36ZM36.45,55.81v-6.59l3.71-3.71-1.41-1.41-2.29,2.29v-1.59h-2v1.59l-2.29-2.29-1.41,1.41,3.71,3.71v6.59h2s-.02,0-.02,0ZM48.45,55.81v-5h-2v5h2ZM46.45,35.81v5h2v-1.5l3.6-2.7-1.2-1.6-2.4,1.8v-1s-2,0-2,0ZM9.5,52.77v3.23h2v-3.23c1.45-.68,2.5-2.78,2.5-5.27,0-3.04-1.57-5.5-3.5-5.5s-3.5,2.46-3.5,5.5c0,2.49,1.05,4.59,2.5,5.27ZM4.5,52.77v3.23h2v-3.23c.3-.14.58-.34.84-.6-.83-1.17-1.34-2.82-1.34-4.67s.51-3.5,1.34-4.67c-.54-.53-1.17-.83-1.84-.83-1.93,0-3.5,2.46-3.5,5.5,0,2.49,1.06,4.59,2.5,5.27ZM2.5,59h58c.55,0,1-.45,1-1s-.45-1-1-1H2.5c-.55,0-1,.45-1,1s.45,1,1,1ZM27.5,10c0,2.76,2.24,5,5,5s5-2.24,5-5-2.24-5-5-5-5,2.24-5,5ZM28.98,49.53h0c-.4-3.89-1.56-6.07-3.42-9.42l-.06-.11-.06.11c-1.85,3.35-3.02,5.53-3.42,9.42h0c-.18,1.71.96,3.2,2.48,3.42v3.04h2v-3.04c1.53-.22,2.66-1.71,2.48-3.42ZM14.7,38h2.8v4l-1.2-1.6-1.6,1.2,2.8,3.73v10.67h2v-18h2.8c2.1,0,3.8-1.7,3.8-3.79,0-1.88-1.37-3.43-3.17-3.73v-.06c0-2.44-1.98-4.42-4.43-4.42s-4.43,1.98-4.43,4.42v.06c-1.8.3-3.17,1.85-3.17,3.73,0,2.09,1.7,3.79,3.8,3.79Z"/>
  <rect class="cls-4" x="25.03" y="12.89" width=".88" height="8.75" transform="translate(14.16 -11.35) rotate(34.29)"/>
  <rect class="cls-5" x="28.24" y="14.81" width=".88" height="8.75" transform="translate(7.39 -7.98) rotate(18.13)"/>
  <rect class="cls-6" x="31.72" y="15.42" width=".88" height="8.75" transform="translate(-.22 .36) rotate(-.64)"/>
  <rect class="cls-3" x="35.49" y="14.64" width=".88" height="8.75" transform="translate(-4.15 12.21) rotate(-18.25)"/>
  <rect class="cls-2" x="38.58" y="12.95" width=".88" height="8.75" transform="translate(-2.74 26.2) rotate(-35.93)"/>
</svg>