<?xml version="1.0" encoding="UTF-8"?>
<svg id="Layer_1" data-name="Layer 1" xmlns="http://www.w3.org/2000/svg" version="1.1" viewBox="0 0 100 100">
  <defs>
    <style>
      .cls-1, .cls-2 {
        fill: none;
      }

      .cls-1, .cls-2, .cls-3 {
        stroke-linecap: round;
        stroke-linejoin: round;
        stroke-width: 2px;
      }

      .cls-1, .cls-3 {
        stroke: #fdba5c;
      }

      .cls-2 {
        stroke: #fad46c;
      }

      .cls-3 {
        fill: #fff;
      }
    </style>
  </defs>
  <circle class="cls-1" cx="50" cy="50.15" r="32.66" transform="translate(-5.13 94.6) rotate(-83.97)"/>
  <ellipse class="cls-1" cx="50" cy="50.15" rx="18.25" ry="32.66"/>
  <g>
    <line class="cls-1" x1="25.21" y1="28.9" x2="74.79" y2="28.9"/>
    <line class="cls-1" x1="25.21" y1="71.4" x2="74.79" y2="71.4"/>
  </g>
  <line class="cls-1" x1="17.34" y1="50.15" x2="82.66" y2="50.15"/>
  <path class="cls-2" d="M34.33,15.84c4.77-2.18,10.08-3.4,15.67-3.4,3.1,0,6.11.37,8.99,1.08"/>
  <path class="cls-2" d="M13.99,38.93c.76-2.44,1.76-4.78,2.97-6.98"/>
  <path class="cls-2" d="M17.34,69c-1.36-2.36-2.48-4.88-3.31-7.52"/>
  <line class="cls-1" x1="50" y1="17.49" x2="50" y2="82.8"/>
  <path class="cls-2" d="M86.99,42.79c7.26,1.98,11.65,4.55,11.65,7.36,0,6.26-21.78,11.33-48.64,11.33S1.36,56.41,1.36,50.15c0-2.81,4.39-5.38,11.65-7.36"/>
  <path class="cls-2" d="M81.36,71.1c3.74,6.54,5.02,11.46,3.03,13.44-4.43,4.43-23.41-7.39-42.41-26.38C22.99,39.16,11.18,20.18,15.61,15.75c1.99-1.99,6.91-.7,13.44,3.04"/>
  <path class="cls-2" d="M70.95,18.79c6.54-3.74,11.46-5.02,13.44-3.03,4.43,4.43-7.39,23.41-26.38,42.41-19,19-37.98,30.81-42.41,26.38-1.99-1.99-.7-6.91,3.04-13.44"/>
  <path class="cls-3" d="M37.3,48.91c0,2.22-1.8,4.02-4.02,4.02s-4.02-1.8-4.02-4.02,1.8-4.02,4.02-4.02,4.02,1.8,4.02,4.02Z"/>
  <circle class="cls-3" cx="67.06" cy="49.82" r="2.71" transform="translate(-3.02 4.35) rotate(-3.63)"/>
  <path class="cls-3" d="M22.03,14.82c0,1.09-.88,1.98-1.98,1.98s-1.98-.88-1.98-1.98.88-1.98,1.98-1.98,1.98.88,1.98,1.98Z"/>
  <circle class="cls-3" cx="66.33" cy="78.3" r="1.98"/>
</svg>