<svg version="1.1" id="Layer_1" xmlns="http://www.w3.org/2000/svg" xmlns:xlink="http://www.w3.org/1999/xlink" x="0px" y="0px"
	 width="100%" viewBox="0 0 305 305" enable-background="new 0 0 305 305" xml:space="preserve">
<path fill="#FFFFFF" opacity="1.000000" stroke="none" 
	d="
M178.000000,306.000000 
	C118.666695,306.000000 59.833389,306.000000 1.000063,306.000000 
	C1.000042,204.333405 1.000042,102.666817 1.000021,1.000172 
	C102.666542,1.000115 204.333084,1.000115 305.999725,1.000057 
	C305.999817,102.666496 305.999817,204.332993 305.999908,305.999756 
	C263.500000,306.000000 221.000000,306.000000 178.000000,306.000000 
M14.302495,162.168030 
	C15.181561,168.585968 15.792464,175.054001 16.980446,181.414230 
	C31.710457,260.276245 112.595955,311.019714 190.501526,290.343597 
	C263.713745,270.913025 307.553772,200.281250 293.008240,125.192215 
	C278.623383,50.932331 202.779816,0.292580 128.644196,15.448462 
	C58.605705,29.766747 11.282331,90.076073 14.302495,162.168030 
z"/>
<path fill="#AC915B" opacity="1.000000" stroke="none" 
	d="
M14.278776,161.697510 
	C11.282331,90.076073 58.605705,29.766747 128.644196,15.448462 
	C202.779816,0.292580 278.623383,50.932331 293.008240,125.192215 
	C307.553772,200.281250 263.713745,270.913025 190.501526,290.343597 
	C112.595955,311.019714 31.710457,260.276245 16.980446,181.414230 
	C15.792464,175.054001 15.181561,168.585968 14.278776,161.697510 
M178.104019,134.304108 
	C178.196320,134.349594 178.288635,134.395081 178.380936,134.440567 
	C178.265503,134.284607 178.150070,134.128662 178.003052,133.484573 
	C177.869873,133.210892 177.736710,132.937210 177.603546,132.663528 
	C177.727417,133.119644 177.851288,133.575760 178.104019,134.304108 
M183.990448,150.856308 
	C184.024765,151.312683 184.059082,151.769073 183.993088,152.910065 
	C182.763168,155.633316 181.533249,158.356552 180.219467,161.807098 
	C180.196335,162.539154 180.173187,163.271194 179.584549,164.413452 
	C175.952835,166.674896 176.728485,173.311356 170.383652,173.415100 
	C169.919083,171.884262 169.274216,170.380035 169.023224,168.812729 
	C168.339584,164.544052 167.822449,160.248734 167.495392,155.799255 
	C167.691513,155.507874 167.632675,155.260239 167.102646,154.444260 
	C166.127625,153.654892 165.152618,152.865524 163.516891,152.028366 
	C162.707382,152.246414 161.897873,152.464462 160.349762,152.855850 
	C158.896530,150.938614 156.077576,148.854858 156.286621,147.140289 
	C156.670868,143.988724 158.837677,141.054489 160.707611,138.008575 
	C161.079102,137.805557 161.450592,137.602539 162.641373,137.182571 
	C164.206619,137.540924 165.970459,137.556625 167.297592,138.325806 
	C170.492310,140.177353 176.046677,140.112396 177.670349,137.619873 
	C177.665558,137.283386 177.490860,137.066086 176.437256,136.898117 
	C175.970413,136.816086 175.503555,136.734055 175.020493,135.989639 
	C174.782547,135.160370 174.544601,134.331085 174.306656,133.501801 
	C173.878815,133.961014 173.450989,134.420227 172.296997,134.932480 
	C171.205963,134.507996 170.114944,134.083511 168.912872,133.116760 
	C168.260818,133.110138 167.608780,133.103516 166.279114,133.175308 
	C165.229721,133.566116 164.180344,133.956940 163.065781,133.518646 
	C163.051208,132.421188 163.036652,131.323730 163.470383,130.050049 
	C163.470383,130.050049 163.946777,129.978790 164.787582,130.007919 
	C168.631058,130.448502 171.837067,129.423462 174.501419,125.976761 
	C174.668488,125.984062 174.835541,125.991371 175.324585,125.944534 
	C175.536697,125.880798 175.716049,125.765945 176.543304,125.255119 
	C179.035568,127.479576 181.527832,129.704025 184.241074,132.563705 
	C185.177368,133.369171 186.113663,134.174637 187.770416,135.007721 
	C191.248505,137.978165 194.762924,140.907349 198.195343,143.929642 
	C202.374069,147.609055 207.600662,147.638565 211.149628,143.908279 
	C214.487030,140.400330 214.056671,134.566742 210.037766,130.515488 
	C196.896423,117.268356 183.715805,104.060188 170.558548,90.828835 
	C169.320908,89.584229 168.141403,88.281837 166.643250,86.697929 
	C171.350555,82.125175 175.640457,77.939247 179.951279,73.774963 
	C185.393250,68.517967 189.927078,62.020065 198.197617,60.623936 
	C199.024033,60.484425 199.892334,59.547199 200.403961,58.760803 
	C203.384140,54.180138 206.263565,49.533913 209.257416,44.782253 
	C207.181747,42.651741 205.346680,40.768181 203.315536,38.683365 
	C198.278122,41.848309 193.163788,44.437401 188.886414,48.024494 
	C186.886841,49.701389 186.518112,53.312992 185.377472,56.033978 
	C185.188538,56.484650 184.889252,56.923218 184.542557,57.268612 
	C176.658218,65.123451 168.760162,72.964531 159.882629,81.783791 
	C155.295944,76.608551 150.931747,71.684364 147.089218,67.348770 
	C142.614334,71.794685 138.593811,75.789192 133.944046,80.408859 
	C138.304520,84.457489 143.135376,88.942848 147.984406,93.445084 
	C146.477371,95.318504 145.368347,96.697136 144.447525,97.841820 
	C146.267288,99.966209 147.856186,101.821075 149.529785,103.774841 
	C151.323471,102.306732 152.687485,101.190315 154.051483,100.073898 
	C153.678268,100.611099 153.305038,101.148300 152.931824,101.685501 
	C158.289230,106.873650 163.646637,112.061798 168.164948,116.437355 
	C163.063049,115.985374 156.644257,115.416740 150.022934,114.830162 
	C150.892288,113.664764 151.930664,112.272804 153.231400,110.529137 
	C152.057159,109.291161 150.955185,108.129379 149.558060,106.656418 
	C143.377213,112.916832 137.696228,118.767906 131.905746,124.508553 
	C126.214508,130.150848 120.762611,136.086121 114.745735,141.361237 
	C114.104744,140.687866 113.463745,140.014496 112.822754,139.341141 
	C124.212029,127.926750 135.601303,116.512367 147.244583,104.843422 
	C145.813904,103.331223 144.629761,102.079597 143.189041,100.556770 
	C131.447937,112.230026 120.015114,123.596771 108.582298,134.963516 
	C108.001457,134.431747 107.420609,133.899979 106.839760,133.368210 
	C109.463013,128.894348 113.820442,125.770721 117.353294,122.032936 
	C121.242973,117.917603 125.325966,113.984222 129.347397,109.994415 
	C133.197189,106.174889 137.076065,102.384666 141.096252,98.429977 
	C139.538345,96.938766 138.485489,95.930969 137.016953,94.525307 
	C129.608353,101.975449 122.354683,109.281509 115.086884,116.573479 
	C111.442734,120.229736 107.570717,123.682312 104.166107,127.547905 
	C99.977844,132.303268 100.198174,138.582275 104.255867,142.968765 
	C108.450516,147.503311 114.303108,148.004745 119.577797,144.291168 
	C120.578125,143.586899 121.602150,142.916321 122.859756,142.064621 
	C122.946823,165.673889 133.718643,180.484604 151.585236,182.097473 
	C170.535095,183.808136 185.841003,173.133133 189.377075,155.503784 
	C189.498077,154.693192 189.619095,153.882614 189.951660,152.195099 
	C189.898209,149.799835 189.844772,147.404587 189.849899,144.271576 
	C189.226074,142.494751 188.602249,140.717926 187.550308,138.663208 
	C186.707458,140.065292 185.864609,141.467361 185.021744,142.869446 
	C185.211090,142.958038 185.400421,143.046646 185.589752,143.135239 
	C186.094559,142.757919 186.599365,142.380585 187.039688,142.664917 
	C187.401810,143.444595 187.763931,144.224274 187.777435,145.527481 
	C186.458710,146.525955 185.139999,147.524445 183.225998,148.659088 
	C182.822433,148.685242 182.418869,148.711395 182.007080,148.125595 
	C181.773178,147.501465 181.539276,146.877335 181.305374,146.253220 
	C181.104767,146.310867 180.904175,146.368515 180.703568,146.426147 
	C180.819962,147.316162 180.936340,148.206177 181.350311,149.728134 
	C182.254837,149.750214 183.159378,149.772293 184.006104,149.985596 
	C184.006104,149.985596 183.940536,150.174316 183.990448,150.856308 
M82.244629,118.500084 
	C82.244629,111.081337 82.244629,103.662590 82.244629,95.766785 
	C96.638741,95.766785 110.221397,95.766785 123.603279,95.766785 
	C123.603279,93.018425 123.603279,90.782784 123.603279,88.219193 
	C110.405167,88.219193 97.599472,88.186188 84.794052,88.231636 
	C77.177521,88.258659 74.773361,90.717918 74.766342,98.504913 
	C74.740211,127.491127 74.742775,156.477402 74.764175,185.463623 
	C74.770264,193.709854 77.140984,195.993332 85.560951,195.996658 
	C108.883209,196.005890 132.205475,195.999908 155.527725,195.999893 
	C178.516815,195.999878 201.505905,196.014877 224.494965,195.990417 
	C231.224487,195.983261 234.209137,193.440521 234.218887,187.472046 
	C234.268417,157.153183 234.267548,126.834160 234.215378,96.515320 
	C234.206253,91.209846 231.654800,88.560944 226.300079,88.283134 
	C221.980179,88.059013 217.639984,88.221298 213.308792,88.219917 
	C204.025864,88.216957 194.742935,88.219017 185.259827,88.219017 
	C185.259827,91.043182 185.259827,93.283707 185.259827,96.157150 
	C199.214081,96.157150 212.919281,96.157150 226.607544,96.157150 
	C226.607544,127.036247 226.607544,157.280502 226.607544,187.677826 
	C178.446808,187.677826 130.579163,187.677826 82.244934,187.677826 
	C82.244934,164.739182 82.244934,142.119629 82.244629,118.500084 
M247.404099,218.830032 
	C250.593765,218.657028 253.783417,218.484039 256.973083,218.311035 
	C257.148010,217.791229 257.322937,217.271439 257.497833,216.751633 
	C256.197357,215.460693 255.040863,213.969101 253.570923,212.914337 
	C247.889542,208.837555 242.001648,205.042572 236.403900,200.857452 
	C233.035492,198.339050 229.572647,197.314362 225.343765,197.327362 
	C184.693420,197.452377 144.009949,198.358551 103.406342,196.975372 
	C84.729698,196.339142 69.223160,200.450760 55.623981,212.803711 
	C54.889645,213.470749 53.903919,213.883606 53.247585,214.607361 
	C52.634064,215.283936 52.303249,216.216858 51.754250,217.205917 
	C52.519341,217.730530 53.037289,218.396606 53.557049,218.398026 
	C117.847450,218.573807 182.138000,218.700531 247.404099,218.830032 
M85.500000,230.095840 
	C138.440659,230.095825 191.381317,230.096466 244.321976,230.092834 
	C245.986099,230.092728 247.667572,230.194092 249.311081,229.997925 
	C254.302307,229.402176 257.249786,226.319214 257.782562,220.904205 
	C255.950790,220.904205 254.153137,220.904205 252.355484,220.904205 
	C229.381241,220.904205 206.406082,220.793030 183.433441,220.984116 
	C177.845734,221.030594 171.788223,219.094666 166.815628,223.691895 
	C166.239410,224.224609 164.888412,223.987366 163.896210,223.990891 
	C157.736542,224.012863 151.575287,224.074524 145.417969,223.951569 
	C143.824280,223.919739 142.223755,223.341675 140.660400,222.895355 
	C138.546661,222.291885 136.468628,221.001602 134.370316,220.991058 
	C108.067154,220.858658 81.763092,220.899673 55.459267,220.916916 
	C54.037018,220.917847 52.614895,221.101776 51.149712,221.203506 
	C52.362377,227.287689 55.524525,229.994522 61.526062,230.069962 
	C69.182938,230.166199 76.841927,230.094971 85.500000,230.095840 
M113.564224,61.207840 
	C110.737549,58.504620 107.910873,55.801399 104.837486,52.862251 
	C102.415237,62.823971 106.734734,71.934525 115.406952,76.214401 
	C124.056877,80.483284 134.536926,78.228653 140.739334,70.764519 
	C146.715210,63.573002 146.889542,52.310776 141.140869,44.826542 
	C135.956223,38.076656 126.851097,35.121651 120.008591,38.185276 
	C122.310387,40.466812 124.505836,42.709614 126.775185,44.874969 
	C129.449203,47.426449 131.755417,49.994610 128.935211,53.865662 
	C122.642220,62.503536 119.250702,64.317024 113.564224,61.207840 
M182.519928,140.403351 
	C182.519928,140.403351 182.594803,140.523758 182.519928,140.403351 
z"/>
<path fill="#FCFBFC" opacity="1.000000" stroke="none" 
	d="
M164.177597,152.076157 
	C165.152618,152.865524 166.127625,153.654892 167.144058,154.973053 
	C167.185471,155.501862 167.239319,155.963959 167.239319,155.963959 
	C167.822449,160.248734 168.339584,164.544052 169.023224,168.812729 
	C169.274216,170.380035 169.919083,171.884262 170.383652,173.415100 
	C176.728485,173.311356 175.952835,166.674896 180.083160,164.022278 
	C180.488968,162.780670 180.396149,161.930237 180.303345,161.079803 
	C181.533249,158.356552 182.763168,155.633316 184.271118,152.405151 
	C184.757553,151.591553 184.965958,151.282867 185.315704,150.867615 
	C185.313965,150.507538 185.170883,150.253998 184.747726,149.992264 
	C184.291931,150.047501 184.116226,150.110916 183.940536,150.174316 
	C183.940536,150.174316 184.006104,149.985596 183.977661,149.571503 
	C183.906555,148.945923 183.863922,148.734436 183.821274,148.522934 
	C185.139999,147.524445 186.458710,146.525955 188.229279,145.265442 
	C189.051193,145.005371 189.421249,145.007339 189.791321,145.009308 
	C189.844772,147.404587 189.898209,149.799835 189.631104,152.860596 
	C189.207596,154.351273 189.104660,155.176437 189.001724,156.001602 
	C185.841003,173.133133 170.535095,183.808136 151.585236,182.097473 
	C133.718643,180.484604 122.946823,165.673889 122.859756,142.064621 
	C121.602150,142.916321 120.578125,143.586899 119.577797,144.291168 
	C114.303108,148.004745 108.450516,147.503311 104.255867,142.968765 
	C100.198174,138.582275 99.977844,132.303268 104.166107,127.547905 
	C107.570717,123.682312 111.442734,120.229736 115.086884,116.573479 
	C122.354683,109.281509 129.608353,101.975449 137.016953,94.525307 
	C138.485489,95.930969 139.538345,96.938766 141.096252,98.429977 
	C137.076065,102.384666 133.197189,106.174889 129.347397,109.994415 
	C125.325966,113.984222 121.242973,117.917603 117.353294,122.032936 
	C113.820442,125.770721 109.463013,128.894348 106.839760,133.368210 
	C107.420609,133.899979 108.001457,134.431747 108.582298,134.963516 
	C120.015114,123.596771 131.447937,112.230026 143.189041,100.556770 
	C144.629761,102.079597 145.813904,103.331223 147.244583,104.843422 
	C135.601303,116.512367 124.212029,127.926750 112.822754,139.341141 
	C113.463745,140.014496 114.104744,140.687866 114.745735,141.361237 
	C120.762611,136.086121 126.214508,130.150848 131.905746,124.508553 
	C137.696228,118.767906 143.377213,112.916832 149.558060,106.656418 
	C150.955185,108.129379 152.057159,109.291161 153.231400,110.529137 
	C151.930664,112.272804 150.892288,113.664764 150.022934,114.830162 
	C156.644257,115.416740 163.063049,115.985374 168.164948,116.437355 
	C163.646637,112.061798 158.289230,106.873650 152.931824,101.685501 
	C153.305038,101.148300 153.678268,100.611099 154.051483,100.073898 
	C152.687485,101.190315 151.323471,102.306732 149.529785,103.774841 
	C147.856186,101.821075 146.267288,99.966209 144.447525,97.841820 
	C145.368347,96.697136 146.477371,95.318504 147.984406,93.445084 
	C143.135376,88.942848 138.304520,84.457489 133.944046,80.408859 
	C138.593811,75.789192 142.614334,71.794685 147.089218,67.348770 
	C150.931747,71.684364 155.295944,76.608551 159.882629,81.783791 
	C168.760162,72.964531 176.658218,65.123451 184.542557,57.268612 
	C184.889252,56.923218 185.188538,56.484650 185.377472,56.033978 
	C186.518112,53.312992 186.886841,49.701389 188.886414,48.024494 
	C193.163788,44.437401 198.278122,41.848309 203.315536,38.683365 
	C205.346680,40.768181 207.181747,42.651741 209.257416,44.782253 
	C206.263565,49.533913 203.384140,54.180138 200.403961,58.760803 
	C199.892334,59.547199 199.024033,60.484425 198.197617,60.623936 
	C189.927078,62.020065 185.393250,68.517967 179.951279,73.774963 
	C175.640457,77.939247 171.350555,82.125175 166.643250,86.697929 
	C168.141403,88.281837 169.320908,89.584229 170.558548,90.828835 
	C183.715805,104.060188 196.896423,117.268356 210.037766,130.515488 
	C214.056671,134.566742 214.487030,140.400330 211.149628,143.908279 
	C207.600662,147.638565 202.374069,147.609055 198.195343,143.929642 
	C194.762924,140.907349 191.248505,137.978165 187.244461,134.711746 
	C185.819031,133.586685 184.919556,132.757584 184.020096,131.928482 
	C181.527832,129.704025 179.035568,127.479576 176.029800,125.380569 
	C175.277039,125.599174 175.105820,125.763397 175.002609,125.998680 
	C174.835541,125.991371 174.668488,125.984062 174.115112,125.645569 
	C168.453522,122.738342 164.676605,124.539307 163.946777,129.978790 
	C163.946777,129.978790 163.470383,130.050049 162.922852,130.271515 
	C162.965149,133.368271 157.656952,134.589310 160.261475,138.029663 
	C158.837677,141.054489 156.670868,143.988724 156.286621,147.140289 
	C156.077576,148.854858 158.896530,150.938614 161.041748,152.862061 
	C162.548340,152.604233 163.362976,152.340195 164.177597,152.076157 
M134.996979,162.591019 
	C136.019608,165.260193 137.099747,167.909164 138.046722,170.604919 
	C138.809464,172.776154 139.411240,175.003952 140.464096,178.448944 
	C143.637054,173.603119 146.142502,170.246597 148.115402,166.601822 
	C149.475464,164.089218 150.511703,161.218460 150.788864,158.418289 
	C150.868011,157.618668 147.721436,156.601303 146.190521,155.494919 
	C145.497559,154.994110 145.307800,153.693054 144.597977,153.337479 
	C141.521042,151.796051 138.415146,150.096741 135.119995,149.400787 
	C134.510696,149.272110 132.270950,153.454330 132.085342,155.752014 
	C131.921814,157.776077 133.578018,159.947174 134.996979,162.591019 
M132.875259,131.398224 
	C130.031586,134.422729 127.187912,137.447220 123.645988,141.214386 
	C127.810524,140.327225 130.472153,139.760223 133.729263,139.066376 
	C136.667160,135.544769 140.079361,131.143265 147.156448,129.700790 
	C145.250870,128.048370 143.636200,126.648209 142.490234,125.654488 
	C139.059052,127.628502 136.213745,129.265442 132.875259,131.398224 
M205.844971,137.111389 
	C205.150864,138.700027 203.993637,140.287811 203.990692,141.877747 
	C203.989502,142.513474 206.617142,143.771286 207.891403,143.597397 
	C208.915558,143.457611 210.667343,140.976990 210.424286,140.592804 
	C209.518295,139.160721 207.923248,138.164581 205.844971,137.111389 
M158.296265,123.030640 
	C158.945709,122.473946 159.595154,121.917259 160.678223,120.988869 
	C156.720490,120.988869 153.473587,120.988869 150.244934,120.988869 
	C150.551575,122.709816 150.814682,124.186409 151.088425,125.722763 
	C153.474319,124.899551 155.583145,124.171951 158.296265,123.030640 
M181.171524,166.115265 
	C181.039322,166.215240 180.829636,166.295059 180.796890,166.420914 
	C180.764664,166.544769 180.895248,166.833755 180.983063,166.846085 
	C181.539276,166.924194 182.103424,166.945648 182.664963,166.985794 
	C182.332718,166.684875 182.000473,166.383972 181.171524,166.115265 
M183.408066,164.484055 
	C183.408066,164.484055 183.523621,164.413742 183.408066,164.484055 
z"/>
<path fill="#FEFDFE" opacity="1.000000" stroke="none" 
	d="
M82.244781,119.000076 
	C82.244934,142.119629 82.244934,164.739182 82.244934,187.677826 
	C130.579163,187.677826 178.446808,187.677826 226.607544,187.677826 
	C226.607544,157.280502 226.607544,127.036247 226.607544,96.157150 
	C212.919281,96.157150 199.214081,96.157150 185.259827,96.157150 
	C185.259827,93.283707 185.259827,91.043182 185.259827,88.219017 
	C194.742935,88.219017 204.025864,88.216957 213.308792,88.219917 
	C217.639984,88.221298 221.980179,88.059013 226.300079,88.283134 
	C231.654800,88.560944 234.206253,91.209846 234.215378,96.515320 
	C234.267548,126.834160 234.268417,157.153183 234.218887,187.472046 
	C234.209137,193.440521 231.224487,195.983261 224.494965,195.990417 
	C201.505905,196.014877 178.516815,195.999878 155.527725,195.999893 
	C132.205475,195.999908 108.883209,196.005890 85.560951,195.996658 
	C77.140984,195.993332 74.770264,193.709854 74.764175,185.463623 
	C74.742775,156.477402 74.740211,127.491127 74.766342,98.504913 
	C74.773361,90.717918 77.177521,88.258659 84.794052,88.231636 
	C97.599472,88.186188 110.405167,88.219193 123.603279,88.219193 
	C123.603279,90.782784 123.603279,93.018425 123.603279,95.766785 
	C110.221397,95.766785 96.638741,95.766785 82.244629,95.766785 
	C82.244629,103.662590 82.244629,111.081337 82.244781,119.000076 
z"/>
<path fill="#F5F2F6" opacity="1.000000" stroke="none" 
	d="
M246.916321,218.829926 
	C182.138000,218.700531 117.847450,218.573807 53.557049,218.398026 
	C53.037289,218.396606 52.519341,217.730530 51.754250,217.205917 
	C52.303249,216.216858 52.634064,215.283936 53.247585,214.607361 
	C53.903919,213.883606 54.889645,213.470749 55.623981,212.803711 
	C69.223160,200.450760 84.729698,196.339142 103.406342,196.975372 
	C144.009949,198.358551 184.693420,197.452377 225.343765,197.327362 
	C229.572647,197.314362 233.035492,198.339050 236.403900,200.857452 
	C242.001648,205.042572 247.889542,208.837555 253.570923,212.914337 
	C255.040863,213.969101 256.197357,215.460693 257.497833,216.751633 
	C257.322937,217.271439 257.148010,217.791229 256.973083,218.311035 
	C253.783417,218.484039 250.593765,218.657028 246.916321,218.829926 
M210.500000,211.165390 
	C218.986649,211.165390 227.473312,211.165390 235.959961,211.165390 
	C231.010803,205.354172 226.287552,201.549805 218.439026,201.627518 
	C174.824448,202.059372 131.203064,201.915466 87.584824,201.751587 
	C80.680534,201.725647 77.484818,206.626724 72.946815,209.855988 
	C73.090134,210.292526 73.233459,210.729050 73.376778,211.165588 
	C118.751183,211.165588 164.125595,211.165588 210.500000,211.165390 
z"/>
<path fill="#FFFFFF" opacity="1.000000" stroke="none" 
	d="
M85.000000,230.095886 
	C76.841927,230.094971 69.182938,230.166199 61.526062,230.069962 
	C55.524525,229.994522 52.362377,227.287689 51.149712,221.203506 
	C52.614895,221.101776 54.037018,220.917847 55.459267,220.916916 
	C81.763092,220.899673 108.067154,220.858658 134.370316,220.991058 
	C136.468628,221.001602 138.546661,222.291885 140.660400,222.895355 
	C142.223755,223.341675 143.824280,223.919739 145.417969,223.951569 
	C151.575287,224.074524 157.736542,224.012863 163.896210,223.990891 
	C164.888412,223.987366 166.239410,224.224609 166.815628,223.691895 
	C171.788223,219.094666 177.845734,221.030594 183.433441,220.984116 
	C206.406082,220.793030 229.381241,220.904205 252.355484,220.904205 
	C254.153137,220.904205 255.950790,220.904205 257.782562,220.904205 
	C257.249786,226.319214 254.302307,229.402176 249.311081,229.997925 
	C247.667572,230.194092 245.986099,230.092728 244.321976,230.092834 
	C191.381317,230.096466 138.440659,230.095825 85.000000,230.095886 
z"/>
<path fill="#FCFBFC" opacity="1.000000" stroke="none" 
	d="
M113.832687,61.474152 
	C119.250702,64.317024 122.642220,62.503536 128.935211,53.865662 
	C131.755417,49.994610 129.449203,47.426449 126.775185,44.874969 
	C124.505836,42.709614 122.310387,40.466812 120.008591,38.185276 
	C126.851097,35.121651 135.956223,38.076656 141.140869,44.826542 
	C146.889542,52.310776 146.715210,63.573002 140.739334,70.764519 
	C134.536926,78.228653 124.056877,80.483284 115.406952,76.214401 
	C106.734734,71.934525 102.415237,62.823971 104.837486,52.862251 
	C107.910873,55.801399 110.737549,58.504620 113.832687,61.474152 
z"/>
<path fill="#F2EEF2" opacity="1.000000" stroke="none" 
	d="
M177.516617,137.883240 
	C176.046677,140.112396 170.492310,140.177353 167.297592,138.325806 
	C165.970459,137.556625 164.206619,137.540924 162.298218,136.952789 
	C162.347031,135.931244 162.738983,135.139511 163.130951,134.347763 
	C164.180344,133.956940 165.229721,133.566116 166.797729,133.370941 
	C167.885544,133.597412 168.454727,133.628220 169.023911,133.659027 
	C170.114944,134.083511 171.205963,134.507996 172.739532,135.190033 
	C173.800278,135.849060 174.418488,136.250549 175.036713,136.652023 
	C175.503555,136.734055 175.970413,136.816086 176.863220,137.170349 
	C177.289185,137.442566 177.516617,137.883240 177.516617,137.883240 
z"/>
<path fill="#B09669" opacity="1.000000" stroke="none" 
	d="
M164.367188,129.993347 
	C164.676605,124.539307 168.453522,122.738342 173.864563,125.657654 
	C171.837067,129.423462 168.631058,130.448502 164.367188,129.993347 
z"/>
<path fill="#B09669" opacity="1.000000" stroke="none" 
	d="
M163.098358,133.933197 
	C162.738983,135.139511 162.347031,135.931244 161.888580,137.061249 
	C161.450592,137.602539 161.079102,137.805557 160.484543,138.019119 
	C157.656952,134.589310 162.965149,133.368271 162.698700,130.359634 
	C163.036652,131.323730 163.051208,132.421188 163.098358,133.933197 
z"/>
<path fill="#F8F6F9" opacity="1.000000" stroke="none" 
	d="
M189.820618,144.640442 
	C189.421249,145.007339 189.051193,145.005371 188.403595,145.003662 
	C187.763931,144.224274 187.401810,143.444595 187.381454,142.178406 
	C187.808289,140.774979 187.893356,139.858032 187.978424,138.941101 
	C188.602249,140.717926 189.226074,142.494751 189.820618,144.640442 
z"/>
<path fill="#B09669" opacity="1.000000" stroke="none" 
	d="
M187.764374,138.802155 
	C187.893356,139.858032 187.808289,140.774979 187.413696,141.847595 
	C186.599365,142.380585 186.094559,142.757919 185.589752,143.135239 
	C185.400421,143.046646 185.211090,142.958038 185.021744,142.869446 
	C185.864609,141.467361 186.707458,140.065292 187.764374,138.802155 
z"/>
<path fill="#B09669" opacity="1.000000" stroke="none" 
	d="
M175.028595,136.320831 
	C174.418488,136.250549 173.800278,135.849060 173.102600,135.163513 
	C173.450989,134.420227 173.878815,133.961014 174.306641,133.501801 
	C174.544601,134.331085 174.782547,135.160370 175.028595,136.320831 
z"/>
<path fill="#B09669" opacity="1.000000" stroke="none" 
	d="
M184.130585,132.246094 
	C184.919556,132.757584 185.819031,133.586685 186.884232,134.697937 
	C186.113663,134.174637 185.177368,133.369171 184.130585,132.246094 
z"/>
<path fill="#B09669" opacity="1.000000" stroke="none" 
	d="
M168.968384,133.387894 
	C168.454727,133.628220 167.885544,133.597412 167.136536,133.331757 
	C167.608780,133.103516 168.260818,133.110138 168.968384,133.387894 
z"/>
<path fill="#B09669" opacity="1.000000" stroke="none" 
	d="
M181.052734,149.096191 
	C180.936340,148.206177 180.819962,147.316162 180.703568,146.426147 
	C180.904175,146.368515 181.104767,146.310867 181.305374,146.253220 
	C181.539276,146.877335 181.773178,147.501465 181.777893,148.541046 
	C181.383377,149.003067 181.218063,149.049637 181.052734,149.096191 
z"/>
<path fill="#F8F6F9" opacity="1.000000" stroke="none" 
	d="
M181.201523,149.412170 
	C181.218063,149.049637 181.383377,149.003067 181.782013,148.847015 
	C182.418869,148.711395 182.822433,148.685242 183.523636,148.591003 
	C183.863922,148.734436 183.906555,148.945923 184.006561,149.475891 
	C183.159378,149.772293 182.254837,149.750214 181.201523,149.412170 
z"/>
<path fill="#F8F6F9" opacity="1.000000" stroke="none" 
	d="
M180.261398,161.443451 
	C180.396149,161.930237 180.488968,162.780670 180.365906,163.817169 
	C180.173187,163.271194 180.196335,162.539154 180.261398,161.443451 
z"/>
<path fill="#F8F6F9" opacity="1.000000" stroke="none" 
	d="
M189.189392,155.752686 
	C189.104660,155.176437 189.207596,154.351273 189.525330,153.299072 
	C189.619095,153.882614 189.498077,154.693192 189.189392,155.752686 
z"/>
<path fill="#AC915D" opacity="1.000000" stroke="none" 
	d="
M163.847244,152.052261 
	C163.362976,152.340195 162.548340,152.604233 161.411041,152.775391 
	C161.897873,152.464462 162.707382,152.246414 163.847244,152.052261 
z"/>
<path fill="#AC915D" opacity="1.000000" stroke="none" 
	d="
M185.174347,150.974167 
	C184.965958,151.282867 184.757553,151.591553 184.321289,152.062836 
	C184.059082,151.769073 184.024765,151.312683 183.965485,150.515320 
	C184.116226,150.110916 184.291931,150.047501 184.778839,150.236481 
	C185.090027,150.488861 185.174347,150.974167 185.174347,150.974167 
z"/>
<path fill="#B09669" opacity="1.000000" stroke="none" 
	d="
M177.975159,134.031876 
	C177.851288,133.575760 177.727417,133.119644 177.603546,132.663528 
	C177.736710,132.937210 177.869873,133.210892 178.002625,133.742096 
	C178.002213,133.999634 177.975159,134.031876 177.975159,134.031876 
z"/>
<path fill="#AC915D" opacity="1.000000" stroke="none" 
	d="
M167.367355,155.881607 
	C167.239319,155.963959 167.185471,155.501862 167.252197,155.279099 
	C167.632675,155.260239 167.691513,155.507874 167.367355,155.881607 
z"/>
<path fill="#B09669" opacity="1.000000" stroke="none" 
	d="
M175.163605,125.971603 
	C175.105820,125.763397 175.277039,125.599174 175.689453,125.552994 
	C175.716049,125.765945 175.536697,125.880798 175.163605,125.971603 
z"/>
<path fill="#B09669" opacity="1.000000" stroke="none" 
	d="
M182.557373,140.463562 
	C182.594803,140.523758 182.519928,140.403351 182.557373,140.463562 
z"/>
<path fill="#B09669" opacity="1.000000" stroke="none" 
	d="
M177.593475,137.751556 
	C177.516617,137.883240 177.289185,137.442566 177.217728,137.205261 
	C177.490860,137.066086 177.665558,137.283386 177.593475,137.751556 
z"/>
<path fill="#B09669" opacity="1.000000" stroke="none" 
	d="
M178.018433,133.986176 
	C178.150070,134.128662 178.265503,134.284607 178.380936,134.440567 
	C178.288635,134.395081 178.196320,134.349594 178.039581,134.167999 
	C177.975159,134.031876 178.002213,133.999634 178.018433,133.986176 
z"/>
<path fill="#AD9361" opacity="1.000000" stroke="none" 
	d="
M134.713806,162.322174 
	C133.578018,159.947174 131.921814,157.776077 132.085342,155.752014 
	C132.270950,153.454330 134.510696,149.272110 135.119995,149.400787 
	C138.415146,150.096741 141.521042,151.796051 144.597977,153.337479 
	C145.307800,153.693054 145.497559,154.994110 146.190521,155.494919 
	C147.721436,156.601303 150.868011,157.618668 150.788864,158.418289 
	C150.511703,161.218460 149.475464,164.089218 148.115402,166.601822 
	C146.142502,170.246597 143.637054,173.603119 140.464096,178.448944 
	C139.411240,175.003952 138.809464,172.776154 138.046722,170.604919 
	C137.099747,167.909164 136.019608,165.260193 134.713806,162.322174 
z"/>
<path fill="#B1986D" opacity="1.000000" stroke="none" 
	d="
M133.121857,131.150299 
	C136.213745,129.265442 139.059052,127.628502 142.490234,125.654488 
	C143.636200,126.648209 145.250870,128.048370 147.156448,129.700790 
	C140.079361,131.143265 136.667160,135.544769 133.729263,139.066376 
	C130.472153,139.760223 127.810524,140.327225 123.645988,141.214386 
	C127.187912,137.447220 130.031586,134.422729 133.121857,131.150299 
z"/>
<path fill="#B0976B" opacity="1.000000" stroke="none" 
	d="
M206.215866,137.058121 
	C207.923248,138.164581 209.518295,139.160721 210.424286,140.592804 
	C210.667343,140.976990 208.915558,143.457611 207.891403,143.597397 
	C206.617142,143.771286 203.989502,142.513474 203.990692,141.877747 
	C203.993637,140.287811 205.150864,138.700027 206.215866,137.058121 
z"/>
<path fill="#B1976D" opacity="1.000000" stroke="none" 
	d="
M157.994110,123.237488 
	C155.583145,124.171951 153.474319,124.899551 151.088425,125.722763 
	C150.814682,124.186409 150.551575,122.709816 150.244934,120.988869 
	C153.473587,120.988869 156.720490,120.988869 160.678223,120.988869 
	C159.595154,121.917259 158.945709,122.473946 157.994110,123.237488 
z"/>
<path fill="#F8F6F9" opacity="1.000000" stroke="none" 
	d="
M181.419876,166.099152 
	C182.000473,166.383972 182.332718,166.684875 182.664963,166.985794 
	C182.103424,166.945648 181.539276,166.924194 180.983063,166.846085 
	C180.895248,166.833755 180.764664,166.544769 180.796890,166.420914 
	C180.829636,166.295059 181.039322,166.215240 181.419876,166.099152 
z"/>
<path fill="#F8F6F9" opacity="1.000000" stroke="none" 
	d="
M185.315704,150.867615 
	C185.174347,150.974167 185.090027,150.488861 185.058914,150.244659 
	C185.170883,150.253998 185.313965,150.507538 185.315704,150.867615 
z"/>
<path fill="#F8F6F9" opacity="1.000000" stroke="none" 
	d="
M183.465851,164.448898 
	C183.523621,164.413742 183.408066,164.484055 183.465851,164.448898 
z"/>
<path fill="#AB9059" opacity="1.000000" stroke="none" 
	d="
M210.000000,211.165497 
	C164.125595,211.165588 118.751183,211.165588 73.376778,211.165588 
	C73.233459,210.729050 73.090134,210.292526 72.946815,209.855988 
	C77.484818,206.626724 80.680534,201.725647 87.584824,201.751587 
	C131.203064,201.915466 174.824448,202.059372 218.439026,201.627518 
	C226.287552,201.549805 231.010803,205.354172 235.959961,211.165390 
	C227.473312,211.165390 218.986649,211.165390 210.000000,211.165497 
z"/>
</svg>